<svg class="animated" id="freepik_stories-curiosity" xmlns="http://www.w3.org/2000/svg" viewBox="0 0 500 500" version="1.1" xmlns:xlink="http://www.w3.org/1999/xlink" xmlns:svgjs="http://svgjs.com/svgjs"><style>svg#freepik_stories-curiosity:not(.animated) .animable {opacity: 0;}svg#freepik_stories-curiosity.animated #freepik--background-complete--inject-55 {animation: 2.7s 1 forwards cubic-bezier(.36,-0.01,.5,1.38) lightSpeedRight;animation-delay: 0s;}svg#freepik_stories-curiosity.animated #freepik--Door--inject-55 {animation: 1s 1 forwards cubic-bezier(.36,-0.01,.5,1.38) zoomIn;animation-delay: 0s;}svg#freepik_stories-curiosity.animated #freepik--Clouds--inject-55 {animation: 1s 1 forwards cubic-bezier(.36,-0.01,.5,1.38) lightSpeedRight;animation-delay: 0s;}            @keyframes lightSpeedRight {              from {                transform: translate3d(50%, 0, 0) skewX(-20deg);                opacity: 0;              }              60% {                transform: skewX(10deg);                opacity: 1;              }              80% {                transform: skewX(-2deg);              }              to {                opacity: 1;                transform: translate3d(0, 0, 0);              }            }                    @keyframes zoomIn {                0% {                    opacity: 0;                    transform: scale(0.5);                }                100% {                    opacity: 1;                    transform: scale(1);                }            }        </style><g id="freepik--background-complete--inject-55" class="animable animator-active" style="transform-origin: 246.281px 254.691px;"><path d="M75.64,405.8c30.42-14.18,59.21-3.51,59.21-3.51C112.76,420.15,75.64,405.8,75.64,405.8Z" style="fill: rgb(224, 224, 224); transform-origin: 105.245px 404.846px;" id="el58e0v6mcd9" class="animable"></path><path d="M157.05,362.94c6.45,27.83-7.79,51.41-7.79,51.41C138.2,393.27,157.05,362.94,157.05,362.94Z" style="fill: rgb(224, 224, 224); transform-origin: 152.254px 388.645px;" id="ela95rt934fld" class="animable"></path><path d="M177,383.15c6.45,27.83-7.79,51.41-7.79,51.41C158.19,413.48,177,383.15,177,383.15Z" style="fill: rgb(224, 224, 224); transform-origin: 172.212px 408.855px;" id="elcaydq4l4y85" class="animable"></path><path d="M132.83,441.85a55.61,55.61,0,0,1,43.41-8.1C161.06,450.54,132.83,441.85,132.83,441.85Z" style="fill: rgb(224, 224, 224); transform-origin: 154.535px 438.231px;" id="elzrkdujnxhx" class="animable"></path><path d="M156.47,421.21c-24.86,12.72-50.55,5-50.55,5C123.29,410.72,156.47,421.21,156.47,421.21Z" style="fill: rgb(224, 224, 224); transform-origin: 131.195px 423.135px;" id="elzmfq1g4hhf" class="animable"></path><path d="M113.42,382.71c.35-.39,15.65,12.8,34.19,29.45s33.27,30.47,32.93,30.86-15.65-12.8-34.19-29.46S113.08,383.09,113.42,382.71Z" style="fill: rgb(224, 224, 224); transform-origin: 146.98px 412.865px;" id="elbms7t8eohgt" class="animable"></path><path d="M127.41,345s18.41,27.78,3.84,53.75C131.25,398.72,115.21,375.23,127.41,345Z" style="fill: rgb(224, 224, 224); transform-origin: 129.846px 371.875px;" id="eln1z6es752oi" class="animable"></path><path d="M66.91,351.13s42.94,4.83,56.62,40.94C123.53,392.07,86.83,388.45,66.91,351.13Z" style="fill: rgb(224, 224, 224); transform-origin: 95.22px 371.6px;" id="elnxqnautxg1" class="animable"></path><path d="M215.16,70.54a42.94,42.94,0,0,1,25.53,16.83C226.06,87.92,215.16,70.54,215.16,70.54Z" style="fill: rgb(224, 224, 224); transform-origin: 227.925px 78.9614px;" id="elw896k9gaqun" class="animable"></path><path d="M262,78c-5.93,13.48-19.09,18.82-19.09,18.82C244.85,84.68,262,78,262,78Z" style="fill: rgb(224, 224, 224); transform-origin: 252.455px 87.41px;" id="elkj6snz2vqii" class="animable"></path><path d="M264,92.48c-5.93,13.48-19.09,18.83-19.09,18.83C246.87,99.19,264,92.48,264,92.48Z" style="fill: rgb(224, 224, 224); transform-origin: 254.455px 101.895px;" id="elaw85z36g8ll" class="animable"></path><path d="M227.65,103.08a28.64,28.64,0,0,1,20.42,10C236.62,115.38,227.65,103.08,227.65,103.08Z" style="fill: rgb(224, 224, 224); transform-origin: 237.86px 108.223px;" id="elxt1a1rbq0jm" class="animable"></path><path d="M243.78,101.85c-14.19-2.41-22.41-13.55-22.41-13.55C233.31,87.28,243.78,101.85,243.78,101.85Z" style="fill: rgb(224, 224, 224); transform-origin: 232.575px 95.0494px;" id="elbrof4ndf1qb" class="animable"></path><path d="M237.88,72.67c.27,0,2.52,10.12,5,22.71s4.34,22.85,4.08,22.9-2.52-10.11-5-22.71S237.62,72.72,237.88,72.67Z" style="fill: rgb(224, 224, 224); transform-origin: 242.42px 95.4751px;" id="el3laojisc3v1" class="animable"></path><path d="M255.31,61.4s-1,17.16-15,23.38A31,31,0,0,1,255.31,61.4Z" style="fill: rgb(224, 224, 224); transform-origin: 247.81px 73.09px;" id="elc1a0rd0h5ld" class="animable"></path><path d="M228.42,45.28s16.24,15.25,10.75,34.37A40.1,40.1,0,0,1,228.42,45.28Z" style="fill: rgb(224, 224, 224); transform-origin: 234.097px 62.465px;" id="eld3c66jc21xj" class="animable"></path><path d="M274.43,53.52c16.85,15.65,17.5,36.67,17.5,36.67C274.9,80.78,274.43,53.52,274.43,53.52Z" style="fill: rgb(224, 224, 224); transform-origin: 283.18px 71.855px;" id="eleq4ssash7qf" class="animable"></path><path d="M322.63,94.12c-16,11.27-34.63,8.32-34.63,8.32C298.52,90,322.63,94.12,322.63,94.12Z" style="fill: rgb(224, 224, 224); transform-origin: 305.315px 98.1271px;" id="elnmrubmbm0wr" class="animable"></path><path d="M315,112c-16,11.27-34.63,8.32-34.63,8.32C290.86,107.88,315,112,315,112Z" style="fill: rgb(224, 224, 224); transform-origin: 297.685px 116.007px;" id="elhyt1el60rvg" class="animable"></path><path d="M266.31,99.11a38.09,38.09,0,0,1,16.34,25.46C268.08,119.27,266.31,99.11,266.31,99.11Z" style="fill: rgb(224, 224, 224); transform-origin: 274.48px 111.84px;" id="el5592ktd0da7" class="animable"></path><path d="M285.51,108.79C271,96.3,269.31,78,269.31,78,283.6,85,285.51,108.79,285.51,108.79Z" style="fill: rgb(224, 224, 224); transform-origin: 277.41px 93.395px;" id="el56fltby0yqt" class="animable"></path><path d="M298.83,71.54c.33.12-4.09,13.23-9.87,29.29s-10.75,29-11.08,28.85,4.08-13.23,9.87-29.29S298.5,71.42,298.83,71.54Z" style="fill: rgb(224, 224, 224); transform-origin: 288.355px 100.61px;" id="elspqp7j8tqsl" class="animable"></path><path d="M326.38,70.68S313.51,89.53,293.27,87A41.08,41.08,0,0,1,326.38,70.68Z" style="fill: rgb(224, 224, 224); transform-origin: 309.825px 78.9562px;" id="el2ujzi6pd0tk" class="animable"></path><path d="M306.86,33.88s8,28.49-11.37,46.48C295.49,80.36,288.32,56.14,306.86,33.88Z" style="fill: rgb(224, 224, 224); transform-origin: 301.312px 57.12px;" id="elm8rlrb1yok" class="animable"></path><polygon points="316.2 104.83 463.09 475.54 317.78 475.54 316.2 104.83" style="fill: rgb(245, 245, 245); transform-origin: 389.645px 290.185px;" id="elp1j5fsy4mg" class="animable"></polygon><path d="M342.35,415.37a46.08,46.08,0,0,1,1.59,32.77C334.19,435.81,342.35,415.37,342.35,415.37Z" style="fill: rgb(224, 224, 224); transform-origin: 342.683px 431.755px;" id="elxmi4zagq2p" class="animable"></path><path d="M365.57,460.65c-15.43,3.4-28.39-4.62-28.39-4.62C348.91,450,365.57,460.65,365.57,460.65Z" style="fill: rgb(224, 224, 224); transform-origin: 351.375px 457.836px;" id="el93d2jelqc1a" class="animable"></path><path d="M354,473c-15.43,3.4-28.39-4.61-28.39-4.61C337.38,462.37,354,473,354,473Z" style="fill: rgb(224, 224, 224); transform-origin: 339.805px 470.192px;" id="el995ts0w8gu" class="animable"></path><path d="M321.62,444a30.73,30.73,0,0,1,4.22,24.05C316.65,459.58,321.62,444,321.62,444Z" style="fill: rgb(224, 224, 224); transform-origin: 323.481px 456.025px;" id="elvf6e1px6uk" class="animable"></path><path d="M333.35,460c-6.89-13.82-2.45-28-2.45-28C339.35,441.69,333.35,460,333.35,460Z" style="fill: rgb(224, 224, 224); transform-origin: 332.454px 446px;" id="elx8vlst0x8t" class="animable"></path><path d="M354.89,436.4c.22.2-7.17,8.58-16.49,18.73s-17,18.22-17.26,18,7.17-8.58,16.5-18.73S354.68,436.21,354.89,436.4Z" style="fill: rgb(224, 224, 224); transform-origin: 338.014px 454.766px;" id="elmfycjlcuy4g" class="animable"></path><path d="M375.68,444.36s-15.47,10-29.75,1.8A33.23,33.23,0,0,1,375.68,444.36Z" style="fill: rgb(224, 224, 224); transform-origin: 360.805px 445.533px;" id="eli5g3yag1b78" class="animable"></path><path d="M372.63,410.87s-2.92,23.72-23,31.07A43,43,0,0,1,372.63,410.87Z" style="fill: rgb(224, 224, 224); transform-origin: 361.13px 426.405px;" id="elqec2v0ikfjq" class="animable"></path><path d="M471.88,163.82a13.3,13.3,0,0,0-2-3.46,5.88,5.88,0,0,0-3.72-2c-1.51-.15-3.19.54-3.68,1.75a16,16,0,0,0-2.3-7.92,8.82,8.82,0,0,0-15.05.28,20.2,20.2,0,0,0-2.44,7.44c-1.16-1.2-3.61-.83-4.82.34a7.33,7.33,0,0,0-1.78,4.32h36Z" style="fill: rgb(224, 224, 224); transform-origin: 454.09px 156.339px;" id="elc5f69y9l65" class="animable"></path><path d="M215.46,47a11.25,11.25,0,0,0-1.65-2.89,4.89,4.89,0,0,0-3.11-1.7,3,3,0,0,0-3.08,1.46,13.18,13.18,0,0,0-1.92-6.61,7.36,7.36,0,0,0-12.57.23,16.82,16.82,0,0,0-2,6.21c-1-1-3-.69-4,.28a6.15,6.15,0,0,0-1.49,3.61h30.07Z" style="fill: rgb(224, 224, 224); transform-origin: 200.675px 40.7163px;" id="eldkhz5wksido" class="animable"></path><path d="M93.1,77.9a10.46,10.46,0,0,0-1.6-2.78,4.7,4.7,0,0,0-3-1.64,2.92,2.92,0,0,0-3,1.4,12.66,12.66,0,0,0-1.85-6.36,7.09,7.09,0,0,0-12.11.22,16.45,16.45,0,0,0-2,6c-.93-1-2.9-.66-3.88.27a6,6,0,0,0-1.43,3.48h29Z" style="fill: rgb(224, 224, 224); transform-origin: 78.73px 71.8581px;" id="el3vhhq51duo4" class="animable"></path><path d="M430.2,84.37A24.14,24.14,0,0,0,426.56,78a10.65,10.65,0,0,0-6.84-3.75c-2.78-.29-5.86,1-6.77,3.21-.4-5-1.25-10.19-4.23-14.56a16.22,16.22,0,0,0-27.68.51c-2.68,4.18-3.6,9-4.48,13.67-2.14-2.21-6.65-1.51-8.88.63s-2.79,5.13-3.26,8h66.2Z" style="fill: rgb(224, 224, 224); transform-origin: 397.52px 70.549px;" id="elkn46te70h6" class="animable"></path><path d="M449.92,248.48a15.76,15.76,0,0,0-2.31-4,6.79,6.79,0,0,0-4.34-2.38c-1.76-.18-3.72.62-4.29,2-.25-3.18-.79-6.46-2.69-9.22a10.27,10.27,0,0,0-17.54.32c-1.7,2.65-2.29,5.69-2.84,8.67-1.36-1.4-4.22-1-5.63.39s-1.77,3.26-2.07,5.05h42Z" style="fill: rgb(224, 224, 224); transform-origin: 429.21px 239.71px;" id="eldf82wrq6ey8" class="animable"></path><path d="M439.23,397.61a15.76,15.76,0,0,0-2.31-4,6.79,6.79,0,0,0-4.34-2.38c-1.76-.18-3.72.62-4.29,2-.25-3.19-.79-6.46-2.69-9.23a10.27,10.27,0,0,0-17.54.32c-1.7,2.65-2.29,5.69-2.84,8.67-1.36-1.4-4.22-1-5.63.4s-1.77,3.25-2.07,5h42Z" style="fill: rgb(224, 224, 224); transform-origin: 418.52px 388.81px;" id="elpaa2oi6epf" class="animable"></path><path d="M62.35,240.72A16.4,16.4,0,0,0,60,236.57a7,7,0,0,0-4.48-2.45c-1.81-.19-3.83.64-4.42,2.1-.26-3.29-.81-6.66-2.77-9.52a11.23,11.23,0,0,0-9.5-4.89A11.19,11.19,0,0,0,30.21,227c-1.75,2.73-2.35,5.87-2.93,8.93-1.39-1.44-4.34-1-5.79.41s-1.83,3.36-2.14,5.2H62.62Z" style="fill: rgb(224, 224, 224); transform-origin: 40.985px 231.674px;" id="elcu2orrqf1at" class="animable"></path><path d="M43.72,324.83s5.12,1.69,5.21,2.93-.64,2.27-.57,3.06-.27,1-1.23,1.08-2.51,1.36-3.59.23-1.56-6-1.56-6Z" style="fill: rgb(235, 235, 235); transform-origin: 45.4589px 328.712px;" id="elfqt7fhalbks" class="animable"></path><path d="M41.71,322.17s-1.35-5.22-.36-6,2.25-.69,2.88-1.17,1-.31,1.57.45,2.51,1.37,2.15,2.89-4.2,4.55-4.2,4.55Z" style="fill: rgb(235, 235, 235); transform-origin: 44.4907px 318.811px;" id="elfj0al7gzibw" class="animable"></path><path d="M42,326.16s.89,5.31-.16,6-2.31.49-3,.91-1,.23-1.53-.58-2.38-1.58-1.89-3.07,4.58-4.17,4.58-4.17Z" style="fill: rgb(235, 235, 235); transform-origin: 38.8452px 329.268px;" id="eloyl1tp88e1" class="animable"></path><path d="M40.14,325.37s-4.15,3.43-5.25,2.85-1.58-1.75-2.28-2.11-.69-.76-.26-1.62.18-2.85,1.71-3.17S40,323.2,40,323.2Z" style="fill: rgb(235, 235, 235); transform-origin: 36.0955px 324.787px;" id="elcpx6gltjfpg" class="animable"></path><path d="M43.54,322.68s4.15-3.43,5.25-2.85,1.58,1.75,2.28,2.11.69.76.26,1.62-.18,2.85-1.71,3.17-5.9-1.88-5.9-1.88Z" style="fill: rgb(235, 235, 235); transform-origin: 47.5845px 323.263px;" id="elknytruligkf" class="animable"></path><path d="M40,323.33S35,321.21,35,320s.83-2.2.83-3,.35-1,1.32-1,2.61-1.14,3.6.07,1,6.11,1,6.11Z" style="fill: rgb(235, 235, 235); transform-origin: 38.375px 319.422px;" id="eles52kkwmhpq" class="animable"></path><path d="M41.82,321.81a2.47,2.47,0,0,0,.53,4.91,2.47,2.47,0,0,0-.53-4.91Z" style="fill: rgb(235, 235, 235); transform-origin: 42.085px 324.265px;" id="el0j4zda9slrwk" class="animable"></path><path d="M41.27,324.64a18.65,18.65,0,0,0-2.18,1.47,18.56,18.56,0,0,0-2.15,1.51,7.63,7.63,0,0,0,2.34-1.24A7.8,7.8,0,0,0,41.27,324.64Z" style="fill: rgb(224, 224, 224); transform-origin: 39.105px 326.13px;" id="elhgkptompqgb" class="animable"></path><path d="M37.29,321.87a7.65,7.65,0,0,0,1.88,1.05,7.53,7.53,0,0,0,2,.75,6.88,6.88,0,0,0-1.88-1.05A7.53,7.53,0,0,0,37.29,321.87Z" style="fill: rgb(224, 224, 224); transform-origin: 39.23px 322.77px;" id="el3xpttwh1i58" class="animable"></path><path d="M40.9,316.91a54.1,54.1,0,0,0,.84,6.2,12.66,12.66,0,0,0-.19-3.13A12.38,12.38,0,0,0,40.9,316.91Z" style="fill: rgb(224, 224, 224); transform-origin: 41.3328px 320.01px;" id="eltk85co5fld9" class="animable"></path><path d="M46.15,320.62a9.66,9.66,0,0,0-1.64,1.31A9.66,9.66,0,0,0,43,323.36a5.46,5.46,0,0,0,1.76-1.18A5.57,5.57,0,0,0,46.15,320.62Z" style="fill: rgb(224, 224, 224); transform-origin: 44.575px 321.99px;" id="eld0zz9lfaogo" class="animable"></path><path d="M43,324.55a10.3,10.3,0,0,0,2.25,1.15,9.3,9.3,0,0,0,2.38.84,10,10,0,0,0-2.25-1.14A9.25,9.25,0,0,0,43,324.55Z" style="fill: rgb(224, 224, 224); transform-origin: 45.315px 325.545px;" id="ely4ynwnkoef7" class="animable"></path><path d="M42.09,325a8,8,0,0,0,0,2.24,7.81,7.81,0,0,0,.32,2.21,15.1,15.1,0,0,0-.31-4.45Z" style="fill: rgb(224, 224, 224); transform-origin: 42.234px 327.225px;" id="elj65amy59k7" class="animable"></path><path d="M42.12,322.92a1.22,1.22,0,1,0,.26,2.43,1.22,1.22,0,0,0-.26-2.43Z" style="fill: rgb(255, 255, 255); transform-origin: 42.2483px 324.135px;" id="ela414yoiow0f" class="animable"></path><path d="M463.21,315.75s6.42,2.13,6.54,3.68-.8,2.85-.72,3.84c.09,1.17-.34,1.24-1.54,1.35-1,.1-3.15,1.71-4.51.3s-2-7.52-2-7.52Z" style="fill: rgb(235, 235, 235); transform-origin: 465.37px 320.623px;" id="elydaf87hnpm" class="animable"></path><path d="M460.68,312.41s-1.69-6.55-.45-7.48,2.83-.87,3.62-1.48,1.22-.38,2,.56,3.14,1.72,2.69,3.63-5.26,5.72-5.26,5.72Z" style="fill: rgb(235, 235, 235); transform-origin: 464.186px 308.236px;" id="eligabuf9m4e" class="animable"></path><path d="M461.11,317.42s1.11,6.67-.21,7.49-2.9.62-3.73,1.15c-1,.63-1.26.28-1.92-.73-.57-.86-3-2-2.37-3.85s5.75-5.23,5.75-5.23Z" style="fill: rgb(235, 235, 235); transform-origin: 457.162px 321.313px;" id="elzb1wfyuzkfh" class="animable"></path><path d="M458.72,316.43s-5.22,4.3-6.59,3.58-2-2.2-2.87-2.66c-1.05-.54-.87-.94-.33-2,.47-.93.23-3.58,2.15-4s7.41,2.35,7.41,2.35Z" style="fill: rgb(235, 235, 235); transform-origin: 453.609px 315.699px;" id="elfufq8apohma" class="animable"></path><path d="M463,313.05s5.21-4.3,6.59-3.57,2,2.19,2.86,2.65c1.05.54.87.94.33,2s-.23,3.58-2.15,4-7.41-2.35-7.41-2.35Z" style="fill: rgb(235, 235, 235); transform-origin: 468.106px 313.785px;" id="eliw0glrz028" class="animable"></path><path d="M458.51,313.87s-6.21-2.66-6.2-4.22,1.05-2.76,1.05-3.76c0-1.18.44-1.2,1.65-1.22,1,0,3.28-1.44,4.52.09s1.3,7.66,1.3,7.66Z" style="fill: rgb(235, 235, 235); transform-origin: 456.57px 308.963px;" id="el5wzx489ys2s" class="animable"></path><path d="M460.82,312a3.1,3.1,0,1,0,3.41,2.74A3.1,3.1,0,0,0,460.82,312Z" style="fill: rgb(235, 235, 235); transform-origin: 461.149px 315.082px;" id="elyz2hheez4gf" class="animable"></path><path d="M460.13,315.51a23.68,23.68,0,0,0-2.73,1.85,22.34,22.34,0,0,0-2.7,1.89,9.18,9.18,0,0,0,2.93-1.55A9.47,9.47,0,0,0,460.13,315.51Z" style="fill: rgb(224, 224, 224); transform-origin: 457.415px 317.38px;" id="el28b35tbfwzt" class="animable"></path><path d="M455.14,312a9,9,0,0,0,2.36,1.31,8.45,8.45,0,0,0,2.53.94,9,9,0,0,0-2.36-1.31A9.17,9.17,0,0,0,455.14,312Z" style="fill: rgb(224, 224, 224); transform-origin: 457.585px 313.125px;" id="el92s4lxjzu7" class="animable"></path><path d="M459.67,305.81a24.2,24.2,0,0,0,.41,3.91,24.65,24.65,0,0,0,.64,3.87,14.87,14.87,0,0,0-.24-3.92A15.91,15.91,0,0,0,459.67,305.81Z" style="fill: rgb(224, 224, 224); transform-origin: 460.214px 309.7px;" id="el2m8wfqk9kud" class="animable"></path><path d="M466.26,310.47a36.39,36.39,0,0,0-4,3.44,6.9,6.9,0,0,0,2.2-1.48A7.07,7.07,0,0,0,466.26,310.47Z" style="fill: rgb(224, 224, 224); transform-origin: 464.26px 312.19px;" id="el2ocjaadbak3" class="animable"></path><path d="M462.35,315.4a12.91,12.91,0,0,0,2.83,1.44,11.9,11.9,0,0,0,3,1.06,12.83,12.83,0,0,0-2.83-1.44A12.19,12.19,0,0,0,462.35,315.4Z" style="fill: rgb(224, 224, 224); transform-origin: 465.265px 316.65px;" id="el9qteupgta4o" class="animable"></path><path d="M461.17,315.93a9.3,9.3,0,0,0,0,2.8,9.68,9.68,0,0,0,.39,2.78,9.51,9.51,0,0,0,0-2.8A10.06,10.06,0,0,0,461.17,315.93Z" style="fill: rgb(224, 224, 224); transform-origin: 461.364px 318.72px;" id="eljkc9xexvvyk" class="animable"></path><path d="M461.19,313.36a1.53,1.53,0,1,0,1.69,1.36A1.52,1.52,0,0,0,461.19,313.36Z" style="fill: rgb(255, 255, 255); transform-origin: 461.358px 314.88px;" id="elz57lmzejtme" class="animable"></path><path d="M121.3,197.19s5.11,1.7,5.2,2.93-.64,2.27-.57,3.06-.27,1-1.23,1.08-2.51,1.36-3.59.24-1.56-6-1.56-6Z" style="fill: rgb(235, 235, 235); transform-origin: 123.029px 201.074px;" id="eln1s6han6cwr" class="animable"></path><path d="M119.28,194.53s-1.35-5.22-.36-6,2.25-.69,2.88-1.18,1-.31,1.57.45,2.51,1.37,2.15,2.89-4.2,4.56-4.2,4.56Z" style="fill: rgb(235, 235, 235); transform-origin: 122.061px 191.163px;" id="elvij8q5ssjq" class="animable"></path><path d="M119.62,198.52s.88,5.31-.17,6-2.3.49-3,.92-1,.22-1.53-.59-2.38-1.58-1.88-3.07,4.57-4.16,4.57-4.16Z" style="fill: rgb(235, 235, 235); transform-origin: 116.46px 201.639px;" id="el3icfjxkccsg" class="animable"></path><path d="M117.71,197.73s-4.15,3.43-5.25,2.85-1.58-1.75-2.28-2.11-.69-.75-.26-1.62.18-2.85,1.71-3.16,5.9,1.87,5.9,1.87Z" style="fill: rgb(235, 235, 235); transform-origin: 113.666px 197.153px;" id="el2zi9byfn1h2" class="animable"></path><path d="M121.11,195s4.15-3.43,5.25-2.85,1.58,1.75,2.28,2.12.69.75.26,1.61-.18,2.85-1.71,3.17-5.9-1.87-5.9-1.87Z" style="fill: rgb(235, 235, 235); transform-origin: 125.154px 195.583px;" id="el7z4l56r8r4u" class="animable"></path><path d="M117.55,195.69s-5-2.12-4.94-3.36.83-2.2.83-3c0-.94.36-1,1.32-1s2.62-1.14,3.6.07,1,6.11,1,6.11Z" style="fill: rgb(235, 235, 235); transform-origin: 115.985px 191.767px;" id="elxlgsv4dkssc" class="animable"></path><path d="M119.39,194.17a2.47,2.47,0,1,0,.53,4.91,2.47,2.47,0,0,0-.53-4.91Z" style="fill: rgb(235, 235, 235); transform-origin: 119.595px 196.631px;" id="el8grs2r70iyw" class="animable"></path><path d="M118.84,197a18.65,18.65,0,0,0-2.18,1.47,20.11,20.11,0,0,0-2.15,1.51,7.37,7.37,0,0,0,2.34-1.24A7.59,7.59,0,0,0,118.84,197Z" style="fill: rgb(224, 224, 224); transform-origin: 116.675px 198.49px;" id="eltbe6xpoqge" class="animable"></path><path d="M114.86,194.23a7.29,7.29,0,0,0,1.88,1.05,7.13,7.13,0,0,0,2,.75,7.2,7.2,0,0,0-1.88-1.05A7.53,7.53,0,0,0,114.86,194.23Z" style="fill: rgb(224, 224, 224); transform-origin: 116.8px 195.13px;" id="elchkhimlsqfu" class="animable"></path><path d="M118.47,189.27a19.47,19.47,0,0,0,.33,3.12,18.9,18.9,0,0,0,.51,3.08,12.1,12.1,0,0,0-.19-3.13A12.52,12.52,0,0,0,118.47,189.27Z" style="fill: rgb(224, 224, 224); transform-origin: 118.905px 192.37px;" id="el9p6dk80ieut" class="animable"></path><path d="M123.72,193a10.06,10.06,0,0,0-1.64,1.32,9.89,9.89,0,0,0-1.54,1.42,5.27,5.27,0,0,0,1.76-1.18A5.21,5.21,0,0,0,123.72,193Z" style="fill: rgb(224, 224, 224); transform-origin: 122.13px 194.37px;" id="elx4a4dun9819" class="animable"></path><path d="M120.61,196.91a10.3,10.3,0,0,0,2.25,1.15,10.1,10.1,0,0,0,2.38.85,9.74,9.74,0,0,0-2.25-1.15A9.25,9.25,0,0,0,120.61,196.91Z" style="fill: rgb(224, 224, 224); transform-origin: 122.925px 197.91px;" id="eltzqtl7yaym8" class="animable"></path><path d="M119.66,197.33a7.79,7.79,0,0,0,0,2.24,7.61,7.61,0,0,0,.31,2.21,7.51,7.51,0,0,0,0-2.23A7.22,7.22,0,0,0,119.66,197.33Z" style="fill: rgb(224, 224, 224); transform-origin: 119.816px 199.555px;" id="el22hliqbzcc9" class="animable"></path><path d="M119.69,195.29a1.22,1.22,0,1,0,.26,2.42,1.22,1.22,0,1,0-.26-2.42Z" style="fill: rgb(255, 255, 255); transform-origin: 119.82px 196.5px;" id="el2jmh35htaox" class="animable"></path><path d="M61.28,171.34s5.31.92,5.58,2.13-.3,2.34-.12,3.11-.12,1-1,1.25-2.28,1.72-3.52.76-2.43-5.7-2.43-5.7Z" style="fill: rgb(235, 235, 235); transform-origin: 63.362px 175.126px;" id="elbpvwy20w6qt" class="animable"></path><path d="M58.89,169s-2.1-5-1.24-5.84,2.13-1,2.68-1.59.92-.45,1.62.21,2.68,1,2.55,2.55S61,169.45,61,169.45Z" style="fill: rgb(235, 235, 235); transform-origin: 60.9746px 165.324px;" id="el11g9ss48ce3" class="animable"></path><path d="M59.81,172.9s1.66,5.12.72,5.93-2.21.82-2.81,1.34-.95.37-1.59-.35-2.59-1.22-2.32-2.76,3.91-4.79,3.91-4.79Z" style="fill: rgb(235, 235, 235); transform-origin: 57.3014px 176.374px;" id="elxycev5bp35f" class="animable"></path><path d="M57.81,172.4s-3.6,4-4.77,3.59-1.82-1.49-2.57-1.75-.8-.64-.5-1.56-.24-2.84,1.23-3.38,6.11,1,6.11,1Z" style="fill: rgb(235, 235, 235); transform-origin: 53.8042px 172.602px;" id="el4arz823yj06" class="animable"></path><path d="M60.77,169.24s3.61-4,4.78-3.59,1.82,1.49,2.57,1.75.79.64.49,1.56.24,2.84-1.22,3.39-6.12-1-6.12-1Z" style="fill: rgb(235, 235, 235); transform-origin: 64.7773px 169.044px;" id="elx7hzaqsddr" class="animable"></path><path d="M57.35,170.41S52.14,169,52,167.81s.5-2.3.38-3.09.21-1,1.16-1.15,2.42-1.52,3.57-.46S59,169,59,169Z" style="fill: rgb(235, 235, 235); transform-origin: 55.4899px 166.56px;" id="el5qb14uhyz94" class="animable"></path><path d="M58.94,168.63a2.47,2.47,0,0,0,1.25,4.78,2.47,2.47,0,1,0-1.25-4.78Z" style="fill: rgb(235, 235, 235); transform-origin: 59.57px 171.019px;" id="eluvbp2v9uvj" class="animable"></path><path d="M58.82,171.51a18.62,18.62,0,0,0-1.94,1.78,19.87,19.87,0,0,0-1.9,1.8,7.23,7.23,0,0,0,2.13-1.56A7.86,7.86,0,0,0,58.82,171.51Z" style="fill: rgb(224, 224, 224); transform-origin: 56.9px 173.3px;" id="elnntuew9i4en" class="animable"></path><path d="M54.48,169.36a7,7,0,0,0,2,.76,7,7,0,0,0,2.11.44,7.87,7.87,0,0,0-2-.76A7,7,0,0,0,54.48,169.36Z" style="fill: rgb(224, 224, 224); transform-origin: 56.535px 169.96px;" id="el15sedp46c71" class="animable"></path><path d="M57.32,163.92a18.36,18.36,0,0,0,.78,3,18.89,18.89,0,0,0,1,3,12.11,12.11,0,0,0-.65-3.07A12.86,12.86,0,0,0,57.32,163.92Z" style="fill: rgb(224, 224, 224); transform-origin: 58.21px 166.92px;" id="elj42mt26rpe" class="animable"></path><path d="M63.05,166.82a9.36,9.36,0,0,0-1.42,1.54A9.6,9.6,0,0,0,60.31,170a5.48,5.48,0,0,0,1.57-1.43A5.24,5.24,0,0,0,63.05,166.82Z" style="fill: rgb(224, 224, 224); transform-origin: 61.68px 168.41px;" id="elrkrvfbdi2an" class="animable"></path><path d="M60.56,171.16A9.58,9.58,0,0,0,63,172a9.67,9.67,0,0,0,2.48.49,10.2,10.2,0,0,0-2.39-.8A9.67,9.67,0,0,0,60.56,171.16Z" style="fill: rgb(224, 224, 224); transform-origin: 63.02px 171.825px;" id="el77ujikfsuwl" class="animable"></path><path d="M59.68,171.72a8.11,8.11,0,0,0,.33,2.21,7.33,7.33,0,0,0,.64,2.14,8.11,8.11,0,0,0-.33-2.21A7.47,7.47,0,0,0,59.68,171.72Z" style="fill: rgb(224, 224, 224); transform-origin: 60.165px 173.895px;" id="el1x1giita6dy" class="animable"></path><path d="M59.4,169.69a1.22,1.22,0,1,0,1.5.87A1.22,1.22,0,0,0,59.4,169.69Z" style="fill: rgb(255, 255, 255); transform-origin: 59.7194px 170.867px;" id="elns9aqhf2buq" class="animable"></path></g><g id="freepik--Floor--inject-55" class="animable" style="transform-origin: 252.09px 475px;"><path d="M463.09,475c0,.14-94.48.26-211,.26s-211-.12-211-.26,94.46-.26,211-.26S463.09,474.88,463.09,475Z" style="fill: rgb(38, 50, 56); transform-origin: 252.09px 475px;" id="elpz8khhwxxgj" class="animable"></path></g><g id="freepik--Door--inject-55" class="animable" style="transform-origin: 244.003px 285.705px;"><path d="M65.38,441.45c29.94-7.08,53.79,7.85,53.79,7.85C96,461.22,65.38,441.45,65.38,441.45Z" style="fill: rgb(69, 90, 100); transform-origin: 92.275px 446.333px;" id="elowlux6e70yn" class="animable"></path><path d="M148.15,433.92c.44,18.88-11.93,32.23-11.93,32.23C131.89,451,148.15,433.92,148.15,433.92Z" style="fill: rgb(69, 90, 100); transform-origin: 141.824px 450.035px;" id="elomzg26pi9tp" class="animable"></path><path d="M134.76,469C112.61,473.85,94,462.46,94,462.46,110.85,453.9,134.76,469,134.76,469Z" style="fill: rgb(69, 90, 100); transform-origin: 114.38px 465.018px;" id="elj2vy5v1qren" class="animable"></path><path d="M105.08,427.19c.34-.25,10.34,12.76,22.34,29.05s13.29,18.53,13,18.78-2.18-1.58-14.18-17.88S104.74,427.44,105.08,427.19Z" style="fill: rgb(69, 90, 100); transform-origin: 122.763px 451.113px;" id="el9wbcx8hrbks" class="animable"></path><path d="M121,394.53s20.28,28.64,5.78,56.45C126.82,451,109.18,426.77,121,394.53Z" style="fill: rgb(69, 90, 100); transform-origin: 124.464px 422.755px;" id="el17cjbjl2nmy" class="animable"></path><g id="eliahj37indw"><g style="opacity: 0.3; transform-origin: 92.275px 446.333px;" class="animable"><path d="M65.38,441.45c29.94-7.08,53.79,7.85,53.79,7.85C96,461.22,65.38,441.45,65.38,441.45Z" id="el5xguradrr63" class="animable" style="transform-origin: 92.275px 446.333px;"></path></g></g><g id="elxv1r6r87ycf"><g style="opacity: 0.3; transform-origin: 141.824px 450.035px;" class="animable"><path d="M148.15,433.92c.44,18.88-11.93,32.23-11.93,32.23C131.89,451,148.15,433.92,148.15,433.92Z" id="elkkjhq6h33m8" class="animable" style="transform-origin: 141.824px 450.035px;"></path></g></g><g id="elu5sfo5xlheo"><g style="opacity: 0.3; transform-origin: 114.38px 465.018px;" class="animable"><path d="M134.76,469C112.61,473.85,94,462.46,94,462.46,110.85,453.9,134.76,469,134.76,469Z" id="el0upzk44r8ub" class="animable" style="transform-origin: 114.38px 465.018px;"></path></g></g><g id="el2oae3mb51m9"><path d="M105.08,427.19c.34-.25,10.34,12.76,22.34,29.05s13.29,18.53,13,18.78-2.18-1.58-14.18-17.88S104.74,427.44,105.08,427.19Z" style="opacity: 0.3; transform-origin: 122.763px 451.113px;" class="animable"></path></g><g id="el210bqo7bxf"><g style="opacity: 0.3; transform-origin: 124.464px 422.755px;" class="animable"><path d="M121,394.53s20.28,28.64,5.78,56.45C126.82,451,109.18,426.77,121,394.53Z" id="elc4lbu6mzq2f" class="animable" style="transform-origin: 124.464px 422.755px;"></path></g></g><path d="M71.15,392.07s33.36,10.91,38.29,41.87C109.44,433.94,80.85,425,71.15,392.07Z" style="fill: rgb(69, 90, 100); transform-origin: 90.295px 413.005px;" id="elu12gqm5ds6" class="animable"></path><g id="el24364oh6oiv"><g style="opacity: 0.3; transform-origin: 90.295px 413.005px;" class="animable"><path d="M71.15,392.07s33.36,10.91,38.29,41.87C109.44,433.94,80.85,425,71.15,392.07Z" id="el8u8w6368us9" class="animable" style="transform-origin: 90.295px 413.005px;"></path></g></g><path d="M97.63,371.82s23.9-24,52.69-14.72C150.32,357.1,130.21,377.82,97.63,371.82Z" style="fill: rgb(69, 90, 100); transform-origin: 123.975px 363.938px;" id="elwvs4qhi91s" class="animable"></path><path d="M53.59,287.3s33.83-1.13,48.52,25.29C102.11,312.59,73.27,314,53.59,287.3Z" style="fill: rgb(69, 90, 100); transform-origin: 77.85px 299.948px;" id="el2mghtrb76hj" class="animable"></path><path d="M112.36,285.6s17.52,24.67,5.06,48.66C117.42,334.26,102.18,313.42,112.36,285.6Z" style="fill: rgb(69, 90, 100); transform-origin: 115.375px 309.93px;" id="el4mfsnr6rlwv" class="animable"></path><path d="M58.33,197.84s24.33,18,19.94,44.67C78.27,242.51,57.3,227.44,58.33,197.84Z" style="fill: rgb(69, 90, 100); transform-origin: 68.5466px 220.175px;" id="elur1qsasagb" class="animable"></path><path d="M75.42,146.72s16.38,17.86,8.86,38.16A43.64,43.64,0,0,1,75.42,146.72Z" style="fill: rgb(69, 90, 100); transform-origin: 80.2258px 165.8px;" id="el8pvc5dn50y6" class="animable"></path><path d="M111.09,165.8S105.8,195.6,80,203.54C80,203.54,84.12,178.06,111.09,165.8Z" style="fill: rgb(69, 90, 100); transform-origin: 95.545px 184.67px;" id="elb5eshgjl17a" class="animable"></path><path d="M100.86,245.38S111,273.9,92.44,293.57C92.44,293.57,83.47,269.36,100.86,245.38Z" style="fill: rgb(69, 90, 100); transform-origin: 96.8758px 269.475px;" id="el9fov69ztaob" class="animable"></path><path d="M64.14,269.49s7.82,4.66,7.52,6.74-1.88,3.51-2.06,4.84c-.22,1.57-.8,1.53-2.42,1.33-1.39-.17-4.64,1.33-6-.92S60.78,271,60.78,271Z" style="fill: rgb(117, 255, 191); transform-origin: 66.0597px 276.112px;" id="elakqakvxt5oq" class="animable"></path><path d="M61.78,264.35s-.32-9.1,1.59-10,4-.32,5.18-.89c1.44-.67,1.72-.15,2.43,1.32.61,1.25,3.64,3.17,2.49,5.56s-8.59,6-8.59,6Z" style="fill: rgb(117, 255, 191); transform-origin: 67.744px 259.756px;" id="elqbtlljqggp" class="animable"></path><path d="M60.88,271.06s-.48,9.1-2.46,9.8-4,0-5.24.43c-1.49.54-1.72,0-2.3-1.52-.5-1.31-3.35-3.49-2-5.76S58,268.8,58,268.8Z" style="fill: rgb(117, 255, 191); transform-origin: 54.7002px 275.147px;" id="el42qav5l24aw" class="animable"></path><path d="M58,269.07s-8.12,4.14-9.71,2.78-2-3.46-3-4.32c-1.22-1-.87-1.49.16-2.76.88-1.08,1.34-4.64,4-4.6s9.06,5.25,9.06,5.25Z" style="fill: rgb(117, 255, 191); transform-origin: 51.5128px 266.147px;" id="elaphx9zo7j3w" class="animable"></path><path d="M64.62,265.87s8.11-4.14,9.71-2.78,2,3.46,3,4.32c1.22,1,.87,1.49-.16,2.76-.88,1.08-1.34,4.63-4,4.6s-9.06-5.25-9.06-5.25Z" style="fill: rgb(117, 255, 191); transform-origin: 71.1072px 268.793px;" id="elgx0gucweoyr" class="animable"></path><path d="M58.5,265.65s-7.4-5.32-6.92-7.36,2.17-3.33,2.47-4.64c.35-1.55.93-1.46,2.52-1.13,1.37.29,4.74-.93,5.92,1.44S62,264.41,62,264.41Z" style="fill: rgb(117, 255, 191); transform-origin: 57.2347px 258.986px;" id="el3pkqorodjca" class="animable"></path><path d="M62.09,263.8a4.17,4.17,0,1,0,3.7,4.61A4.16,4.16,0,0,0,62.09,263.8Z" style="fill: rgb(117, 255, 191); transform-origin: 61.6464px 267.946px;" id="el7f34vk7c25i" class="animable"></path><path d="M60.15,268.27A32.74,32.74,0,0,0,56,269.91a31.35,31.35,0,0,0-4.1,1.7,12.74,12.74,0,0,0,4.31-1.18A12.62,12.62,0,0,0,60.15,268.27Z" style="fill: rgb(38, 50, 56); transform-origin: 56.025px 269.94px;" id="elrufrh1u7tl" class="animable"></path><path d="M54.6,262.25a12,12,0,0,0,2.72,2.42,12.28,12.28,0,0,0,3.06,2,12.37,12.37,0,0,0-2.72-2.41A12.51,12.51,0,0,0,54.6,262.25Z" style="fill: rgb(38, 50, 56); transform-origin: 57.49px 264.46px;" id="eletz9nkrp2" class="animable"></path><path d="M62.37,255.39a30.87,30.87,0,0,0-.6,5.25,32.86,32.86,0,0,0-.28,5.29,35.95,35.95,0,0,0,.88-10.54Z" style="fill: rgb(38, 50, 56); transform-origin: 61.9608px 260.66px;" id="el33ebs0x0548" class="animable"></path><path d="M69.68,263.42A15.67,15.67,0,0,0,66.5,265a15.55,15.55,0,0,0-3.07,1.8,9.43,9.43,0,0,0,3.33-1.31A8.93,8.93,0,0,0,69.68,263.42Z" style="fill: rgb(38, 50, 56); transform-origin: 66.555px 265.11px;" id="el6vukr0qx6jx" class="animable"></path><path d="M63.11,268.77a16.54,16.54,0,0,0,3.3,2.72A16.94,16.94,0,0,0,70,273.76a16.6,16.6,0,0,0-3.3-2.72A16.27,16.27,0,0,0,63.11,268.77Z" style="fill: rgb(38, 50, 56); transform-origin: 66.555px 271.265px;" id="el6ue36aejzjo" class="animable"></path><path d="M61.39,269.13a13,13,0,0,0-.83,3.68,13.39,13.39,0,0,0-.28,3.77,13.29,13.29,0,0,0,.83-3.69A12.49,12.49,0,0,0,61.39,269.13Z" style="fill: rgb(38, 50, 56); transform-origin: 60.8383px 272.855px;" id="elc038v4x107" class="animable"></path><path d="M62.18,265.75A2.07,2.07,0,1,0,64,268,2.07,2.07,0,0,0,62.18,265.75Z" style="fill: rgb(255, 255, 255); transform-origin: 61.9391px 267.806px;" id="el1hhf2ddj9ah" class="animable"></path><path d="M100.25,228.57s7.26,4.33,7,6.25-1.74,3.26-1.91,4.49c-.2,1.46-.75,1.42-2.25,1.24-1.29-.16-4.31,1.24-5.59-.86s-.35-9.71-.35-9.71Z" style="fill: rgb(117, 255, 191); transform-origin: 102.04px 234.715px;" id="elimlilpyfcya" class="animable"></path><path d="M98.06,223.8s-.3-8.45,1.47-9.26,3.69-.3,4.81-.82c1.34-.63,1.6-.15,2.26,1.21.57,1.17,3.38,2.95,2.31,5.17s-8,5.55-8,5.55Z" style="fill: rgb(117, 255, 191); transform-origin: 103.596px 219.548px;" id="eltllfolr3pp" class="animable"></path><path d="M97.22,230s-.44,8.44-2.28,9.09-3.69,0-4.86.4c-1.39.5-1.61,0-2.15-1.41-.46-1.21-3.1-3.24-1.84-5.35s8.43-4.83,8.43-4.83Z" style="fill: rgb(117, 255, 191); transform-origin: 91.4862px 233.789px;" id="el68kok90i95w" class="animable"></path><path d="M94.57,228.18s-7.53,3.84-9,2.58-1.83-3.21-2.78-4c-1.13-.95-.81-1.39.14-2.56.82-1,1.25-4.31,3.7-4.28S95,224.78,95,224.78Z" style="fill: rgb(117, 255, 191); transform-origin: 88.5353px 225.467px;" id="elib3cifdasj" class="animable"></path><path d="M100.69,225.2s7.53-3.84,9-2.58,1.83,3.21,2.79,4c1.13,1,.8,1.39-.15,2.56-.82,1-1.24,4.31-3.7,4.28s-8.41-4.87-8.41-4.87Z" style="fill: rgb(117, 255, 191); transform-origin: 106.708px 227.913px;" id="elyx6ciq03mvn" class="animable"></path><path d="M95,225s-6.87-4.94-6.42-6.83,2-3.1,2.29-4.31c.32-1.44.86-1.35,2.34-1,1.27.26,4.4-.87,5.5,1.32s-.48,9.71-.48,9.71Z" style="fill: rgb(117, 255, 191); transform-origin: 93.8291px 218.821px;" id="elzlwfezz2kia" class="animable"></path><path d="M98.35,223.28a3.88,3.88,0,1,0,3.43,4.28A3.88,3.88,0,0,0,98.35,223.28Z" style="fill: rgb(117, 255, 191); transform-origin: 97.9232px 227.136px;" id="elk7endo7y6nn" class="animable"></path><path d="M96.54,227.43A32,32,0,0,0,92.71,229a30.48,30.48,0,0,0-3.81,1.57,11.8,11.8,0,0,0,4-1.1A11.59,11.59,0,0,0,96.54,227.43Z" style="fill: rgb(38, 50, 56); transform-origin: 92.72px 229px;" id="elee8ijcb4a68" class="animable"></path><path d="M91.39,221.85a11.49,11.49,0,0,0,2.53,2.24,11.37,11.37,0,0,0,2.84,1.83,11.79,11.79,0,0,0-2.53-2.24A11.37,11.37,0,0,0,91.39,221.85Z" style="fill: rgb(38, 50, 56); transform-origin: 94.075px 223.885px;" id="el8ab2ly0j7jm" class="animable"></path><path d="M98.61,215.47a28.3,28.3,0,0,0-.56,4.88,30.81,30.81,0,0,0-.26,4.91,19.46,19.46,0,0,0,.77-4.87A20.21,20.21,0,0,0,98.61,215.47Z" style="fill: rgb(38, 50, 56); transform-origin: 98.2576px 220.365px;" id="el2kwi267r6zk" class="animable"></path><path d="M105.39,222.93a15.16,15.16,0,0,0-3,1.46,14.69,14.69,0,0,0-2.85,1.67,8.82,8.82,0,0,0,3.09-1.21A8.34,8.34,0,0,0,105.39,222.93Z" style="fill: rgb(38, 50, 56); transform-origin: 102.465px 224.495px;" id="elt9h5390476" class="animable"></path><path d="M99.29,227.9a15.83,15.83,0,0,0,3.07,2.52,15.22,15.22,0,0,0,3.36,2.11,16,16,0,0,0-3.06-2.52A15,15,0,0,0,99.29,227.9Z" style="fill: rgb(38, 50, 56); transform-origin: 102.505px 230.215px;" id="el4rvm0m0hn3w" class="animable"></path><path d="M97.7,228.23a11.83,11.83,0,0,0-.77,3.42,12.15,12.15,0,0,0-.27,3.5,12,12,0,0,0,.78-3.42A12.33,12.33,0,0,0,97.7,228.23Z" style="fill: rgb(38, 50, 56); transform-origin: 97.1805px 231.69px;" id="elaldof428vxt" class="animable"></path><path d="M98.43,225.1a1.92,1.92,0,1,0,1.69,2.11A1.92,1.92,0,0,0,98.43,225.1Z" style="fill: rgb(255, 255, 255); transform-origin: 98.2107px 227.007px;" id="elqwvczrj988n" class="animable"></path><path d="M92.56,338.88s8.25,4.91,7.94,7.1-2,3.7-2.18,5.1c-.23,1.66-.85,1.61-2.55,1.4-1.46-.17-4.89,1.41-6.35-1s-.4-11-.4-11Z" style="fill: rgb(117, 255, 191); transform-origin: 94.5784px 345.856px;" id="elfplrvrbhzvp" class="animable"></path><path d="M90.08,333.46s-.34-9.59,1.67-10.51,4.19-.34,5.47-.93c1.51-.71,1.81-.17,2.56,1.38.64,1.32,3.83,3.35,2.62,5.86s-9.05,6.31-9.05,6.31Z" style="fill: rgb(117, 255, 191); transform-origin: 96.3649px 328.641px;" id="el7owdj4zl5kk" class="animable"></path><path d="M89.13,340.54s-.51,9.59-2.59,10.32-4.2,0-5.53.45c-1.57.58-1.82,0-2.43-1.6-.52-1.37-3.52-3.67-2.09-6.07s9.57-5.49,9.57-5.49Z" style="fill: rgb(117, 255, 191); transform-origin: 82.6186px 344.84px;" id="el3tfmqr6qq5w" class="animable"></path><path d="M86.12,338.43s-8.55,4.37-10.23,2.94-2.08-3.65-3.16-4.56c-1.29-1.07-.92-1.57.16-2.9.93-1.15,1.42-4.89,4.21-4.86s9.54,5.53,9.54,5.53Z" style="fill: rgb(117, 255, 191); transform-origin: 79.2751px 335.354px;" id="elljdlqe27ru9" class="animable"></path><path d="M93.07,335.06s8.55-4.37,10.23-2.93,2.08,3.64,3.16,4.55c1.28,1.08.92,1.58-.17,2.91-.92,1.14-1.41,4.89-4.2,4.86s-9.55-5.54-9.55-5.54Z" style="fill: rgb(117, 255, 191); transform-origin: 99.9074px 338.145px;" id="elz2z6tr5vbii" class="animable"></path><path d="M86.62,334.83s-7.8-5.61-7.3-7.76,2.3-3.51,2.61-4.89c.36-1.64,1-1.54,2.66-1.19,1.44.3,5-1,6.24,1.51s-.54,11-.54,11Z" style="fill: rgb(117, 255, 191); transform-origin: 85.283px 327.804px;" id="el5mkccnptau7" class="animable"></path><path d="M90.41,332.88a4.4,4.4,0,1,0,3.89,4.86A4.4,4.4,0,0,0,90.41,332.88Z" style="fill: rgb(117, 255, 191); transform-origin: 89.927px 337.253px;" id="ellxd0ag11efc" class="animable"></path><path d="M88.36,337.59A35.43,35.43,0,0,0,84,339.32a34.72,34.72,0,0,0-4.33,1.79,13.26,13.26,0,0,0,4.55-1.25A13,13,0,0,0,88.36,337.59Z" style="fill: rgb(38, 50, 56); transform-origin: 84.015px 339.35px;" id="elw67f91ahdth" class="animable"></path><path d="M82.51,331.25a12.6,12.6,0,0,0,2.87,2.54,12.55,12.55,0,0,0,3.22,2.08,13.16,13.16,0,0,0-2.87-2.54A12.55,12.55,0,0,0,82.51,331.25Z" style="fill: rgb(38, 50, 56); transform-origin: 85.555px 333.56px;" id="elsz7q8giz6l" class="animable"></path><path d="M90.7,324a33.5,33.5,0,0,0-.63,5.54c-.26,3.06-.46,5.55-.29,5.57a23.18,23.18,0,0,0,.87-5.52A22.1,22.1,0,0,0,90.7,324Z" style="fill: rgb(38, 50, 56); transform-origin: 90.2852px 329.555px;" id="el34v1mddwu6n" class="animable"></path><path d="M98.41,332.48a16.8,16.8,0,0,0-3.36,1.66A16.53,16.53,0,0,0,91.82,336a9.94,9.94,0,0,0,3.51-1.38A9.54,9.54,0,0,0,98.41,332.48Z" style="fill: rgb(38, 50, 56); transform-origin: 95.115px 334.24px;" id="elc7emejes7ji" class="animable"></path><path d="M91.48,338.12A17.86,17.86,0,0,0,95,341a17.91,17.91,0,0,0,3.81,2.39,17.26,17.26,0,0,0-3.47-2.87C93.28,339.06,91.57,338,91.48,338.12Z" style="fill: rgb(38, 50, 56); transform-origin: 95.145px 340.75px;" id="el2gx08hct8g1" class="animable"></path><path d="M89.67,338.49a13.68,13.68,0,0,0-.87,3.89,13.53,13.53,0,0,0-.3,4,13.78,13.78,0,0,0,.87-3.88A13.59,13.59,0,0,0,89.67,338.49Z" style="fill: rgb(38, 50, 56); transform-origin: 89.085px 342.435px;" id="el6kfvp1bpc1y" class="animable"></path><path d="M90.5,334.94a2.18,2.18,0,1,0,1.92,2.4A2.17,2.17,0,0,0,90.5,334.94Z" style="fill: rgb(255, 255, 255); transform-origin: 90.2531px 337.106px;" id="el5gr1m7v1qmx" class="animable"></path><path d="M100.74,148.36s-.08.18-.27.51l-.83,1.49c-.38.66-.83,1.47-1.37,2.42l-.87,1.54c-.29.56-.6,1.15-.92,1.79a153.37,153.37,0,0,0-9.55,22.1c-.78,2.42-1.62,5-2.39,7.62s-1.54,5.46-2.15,8.39A152.6,152.6,0,0,0,79.24,213a150.87,150.87,0,0,0-.81,21.07,142.35,142.35,0,0,0,2.35,22.5,164.6,164.6,0,0,0,5.87,21.86A199.81,199.81,0,0,0,94.71,298a189,189,0,0,0,18.38,30.6l2.22,3c.76.94,1.5,1.86,2.23,2.75l2.1,2.59c.67.84,1.4,1.59,2.06,2.36,1.36,1.49,2.58,2.93,3.78,4.17l3.33,3.37c1,1,1.92,1.89,2.73,2.62l2.05,1.87,1.25,1.16c.28.26.42.41.42.41s-.16-.12-.45-.37l-1.29-1.12-2.08-1.84c-.83-.72-1.78-1.56-2.77-2.58l-3.37-3.34c-1.22-1.24-2.44-2.67-3.81-4.16-.67-.76-1.41-1.51-2.09-2.35l-2.12-2.59L115,331.76c-.72-1-1.47-2-2.23-3a186.3,186.3,0,0,1-18.52-30.61,199.61,199.61,0,0,1-8.12-19.53,165,165,0,0,1-5.89-21.94,142,142,0,0,1-2.35-22.58,156.4,156.4,0,0,1,4-40c.62-2.94,1.46-5.71,2.18-8.4s1.63-5.21,2.43-7.63A150,150,0,0,1,96.3,156c.33-.63.65-1.22.94-1.78l.89-1.53,1.42-2.39.87-1.46C100.62,148.52,100.74,148.36,100.74,148.36Z" style="fill: rgb(38, 50, 56); transform-origin: 106.542px 250.63px;" id="elj5hjccsy7pl" class="animable"></path><path d="M111.39,144.62s10.3,3.16,10.53,5.62-1.18,4.54-1,6.11c.19,1.86-.5,2-2.41,2.2-1.64.19-5,2.82-7.17.62S108,147.3,108,147.3Z" style="fill: rgb(117, 255, 191); transform-origin: 114.973px 152.331px;" id="els7jlj314f7l" class="animable"></path><path d="M107.24,139.4s-2.91-10.33-1-11.86,4.47-1.47,5.71-2.46c1.47-1.17,1.93-.65,3.16.83,1,1.26,5.07,2.62,4.41,5.67s-8.2,9.24-8.2,9.24Z" style="fill: rgb(117, 255, 191); transform-origin: 112.591px 132.629px;" id="elb06jx75l3l" class="animable"></path><path d="M108.09,147.33s2,10.54-.09,11.89-4.58,1.08-5.9,1.95c-1.56,1-2,.49-3.08-1.09-.93-1.36-4.81-3.06-3.89-6s9-8.49,9-8.49Z" style="fill: rgb(117, 255, 191); transform-origin: 101.971px 153.637px;" id="elp04adf0ztjg" class="animable"></path><path d="M104.25,145.84s-8.16,7-10.38,5.89-3.23-3.41-4.65-4.11c-1.68-.83-1.41-1.47-.58-3.2.7-1.48.24-5.68,3.29-6.38s11.87,3.48,11.87,3.48Z" style="fill: rgb(117, 255, 191); transform-origin: 96.1176px 144.905px;" id="el622842rzgp5" class="animable"></path><path d="M110.93,140.34s8.16-7,10.37-5.89,3.23,3.41,4.65,4.11c1.69.83,1.42,1.47.59,3.21-.7,1.48-.24,5.68-3.29,6.38s-11.87-3.49-11.87-3.49Z" style="fill: rgb(117, 255, 191); transform-origin: 119.062px 141.28px;" id="elo21md0j8h1m" class="animable"></path><path d="M103.84,141.79s-10-4-10-6.49,1.57-4.42,1.54-6c0-1.87.66-1.93,2.59-2,1.64,0,5.18-2.39,7.2,0s2.33,12.11,2.33,12.11Z" style="fill: rgb(117, 255, 191); transform-origin: 100.67px 134.014px;" id="elabnj0i15njk" class="animable"></path><path d="M107.45,138.67a4.92,4.92,0,1,0,5.53,4.25A4.93,4.93,0,0,0,107.45,138.67Z" style="fill: rgb(117, 255, 191); transform-origin: 108.1px 143.547px;" id="eltll5u5ffc6m" class="animable"></path><path d="M106.47,144.34c-.13-.14-1.94,1.35-4.28,3s-4.34,2.92-4.25,3.09,2.25-.85,4.63-2.56S106.59,144.46,106.47,144.34Z" style="fill: rgb(38, 50, 56); transform-origin: 102.207px 147.39px;" id="elvvncn8rptyj" class="animable"></path><path d="M98.41,139c-.07.17,1.63,1.07,3.8,2s4,1.57,4.06,1.41-1.63-1.07-3.8-2S98.48,138.83,98.41,139Z" style="fill: rgb(38, 50, 56); transform-origin: 102.34px 140.704px;" id="el6nty6z6t9q" class="animable"></path><path d="M105.42,129c-.18,0,.24,2.79.78,6.18s1,6.15,1.15,6.13,0-2.82-.51-6.23S105.59,128.93,105.42,129Z" style="fill: rgb(38, 50, 56); transform-origin: 106.392px 135.154px;" id="el4flx2hng3ct" class="animable"></path><path d="M116.06,136.13c-.13-.12-1.5,1.16-3.21,2.69s-3.14,2.75-3,2.9,1.72-.86,3.46-2.42S116.19,136.25,116.06,136.13Z" style="fill: rgb(38, 50, 56); transform-origin: 112.955px 138.928px;" id="el6o54g44k1mv" class="animable"></path><path d="M110,144.08c-.06.17,2,1.15,4.55,2.2s4.72,1.75,4.79,1.59-2-1.15-4.55-2.2S110.07,143.91,110,144.08Z" style="fill: rgb(38, 50, 56); transform-origin: 114.67px 145.974px;" id="elj1geajwddt9" class="animable"></path><path d="M108.14,145c-.18,0-.15,2,.07,4.45s.55,4.41.73,4.39.14-2-.08-4.45S108.32,145,108.14,145Z" style="fill: rgb(38, 50, 56); transform-origin: 108.538px 149.42px;" id="elmnnl9ulon2" class="animable"></path><path d="M108.1,140.89a2.43,2.43,0,1,0,2.73,2.1A2.42,2.42,0,0,0,108.1,140.89Z" style="fill: rgb(255, 255, 255); transform-origin: 108.42px 143.298px;" id="elbzy32u98u9s" class="animable"></path><rect x="133.19" y="96.18" width="187.99" height="378.84" style="fill: rgb(69, 90, 100); transform-origin: 227.185px 285.6px;" id="elz6hjo6pf0j" class="animable"></rect><rect x="140.37" y="103.8" width="173.63" height="371.22" style="fill: rgb(224, 224, 224); transform-origin: 227.185px 289.41px;" id="elx8o1nm3bwtk" class="animable"></rect><path d="M283.53,262.85c14.4,23.43,8.42,47.87,8.42,47.87C275.34,294.42,283.53,262.85,283.53,262.85Z" style="fill: rgb(69, 90, 100); transform-origin: 287.346px 286.785px;" id="el0mwqwhgyo0y" class="animable"></path><path d="M313.13,331c-15.9,5.67-30.71-1.09-30.71-1.09C294.05,322,313.13,331,313.13,331Z" style="fill: rgb(69, 90, 100); transform-origin: 297.775px 329.961px;" id="elg95e1un6bh7" class="animable"></path><path d="M277.74,327.32c-10.35-17.43-5.89-36.4-5.89-36.4C283.84,302.8,277.74,327.32,277.74,327.32Z" style="fill: rgb(69, 90, 100); transform-origin: 275.093px 309.12px;" id="elfqqqn5wxppk" class="animable"></path><path d="M306.77,292.56c.31.22-7.93,12.35-18.4,27.11S269.17,346.2,268.86,346s7.93-12.36,18.4-27.11S306.46,292.34,306.77,292.56Z" style="fill: rgb(69, 90, 100); transform-origin: 287.815px 319.28px;" id="el5ncphk2nl2a" class="animable"></path><path d="M327.07,253.91s.09,31.38-24.81,44.24C302.26,298.15,301.81,271.38,327.07,253.91Z" style="fill: rgb(69, 90, 100); transform-origin: 314.665px 276.03px;" id="elp82tjz86jd" class="animable"></path><path d="M339,297s-18.63,25.25-46.3,20.73C292.67,317.68,308.27,295.92,339,297Z" style="fill: rgb(69, 90, 100); transform-origin: 315.85px 307.616px;" id="el4pp3zx2wcvw" class="animable"></path><g id="el8gw70c13fj"><g style="opacity: 0.3; transform-origin: 287.346px 286.785px;" class="animable"><path d="M283.53,262.85c14.4,23.43,8.42,47.87,8.42,47.87C275.34,294.42,283.53,262.85,283.53,262.85Z" id="elhftpzizythw" class="animable" style="transform-origin: 287.346px 286.785px;"></path></g></g><g id="elgyzgjdljhug"><g style="opacity: 0.3; transform-origin: 297.775px 329.961px;" class="animable"><path d="M313.13,331c-15.9,5.67-30.71-1.09-30.71-1.09C294.05,322,313.13,331,313.13,331Z" id="eliofdltlrti" class="animable" style="transform-origin: 297.775px 329.961px;"></path></g></g><g id="eluv3m5o8rcx"><g style="opacity: 0.3; transform-origin: 275.093px 309.12px;" class="animable"><path d="M277.74,327.32c-10.35-17.43-5.89-36.4-5.89-36.4C283.84,302.8,277.74,327.32,277.74,327.32Z" id="elpekh18xuq4" class="animable" style="transform-origin: 275.093px 309.12px;"></path></g></g><g id="el1lfq19yv4xj"><path d="M306.77,292.56c.31.22-7.93,12.35-18.4,27.11S269.17,346.2,268.86,346s7.93-12.36,18.4-27.11S306.46,292.34,306.77,292.56Z" style="opacity: 0.3; transform-origin: 287.815px 319.28px;" class="animable"></path></g><g id="el70pzbkn3hsa"><g style="opacity: 0.3; transform-origin: 314.665px 276.03px;" class="animable"><path d="M327.07,253.91s.09,31.38-24.81,44.24C302.26,298.15,301.81,271.38,327.07,253.91Z" id="elete5xws4477" class="animable" style="transform-origin: 314.665px 276.03px;"></path></g></g><g id="ele95u5h2qaq8"><g style="opacity: 0.3; transform-origin: 315.85px 307.616px;" class="animable"><path d="M339,297s-18.63,25.25-46.3,20.73C292.67,317.68,308.27,295.92,339,297Z" id="eli07ct39srpo" class="animable" style="transform-origin: 315.85px 307.616px;"></path></g></g><path d="M313.74,191.66a24.78,24.78,0,0,0-3.68-6.44,10.88,10.88,0,0,0-6.94-3.8c-2.82-.29-5.94,1-6.86,3.25-.4-5.09-1.26-10.32-4.29-14.75a16.43,16.43,0,0,0-28,.52c-2.72,4.23-3.65,9.1-4.54,13.85-2.17-2.23-6.74-1.53-9,.64s-2.83,5.2-3.31,8h67.08Z" style="fill: rgb(255, 255, 255); transform-origin: 280.66px 177.637px;" id="elf79huwbqtx7" class="animable"></path><path d="M321.18,96.18s-.14.18-.44.52l-1.35,1.47-5.3,5.71,0,0H314c-14.92.09-45.88.14-81.57.14l-65.1-.07-19.73-.09-5.36,0-1.39,0-.48,0a4.34,4.34,0,0,1,.48,0l1.39,0,5.36,0,19.73-.08,65.1-.08c35.69,0,66.65.06,81.57.14l-.09,0,5.39-5.63,1.39-1.44C321,96.33,321.18,96.18,321.18,96.18Z" style="fill: rgb(38, 50, 56); transform-origin: 230.775px 100.1px;" id="elt24erv8iyx" class="animable"></path><path d="M342.17,356.56s.07,25.37-20.07,35.77A45.68,45.68,0,0,1,342.17,356.56Z" style="fill: rgb(69, 90, 100); transform-origin: 332.135px 374.445px;" id="el85xhkctf19c" class="animable"></path><path d="M277.19,403.77s20.73,14.63,17.55,37.07A45.68,45.68,0,0,1,277.19,403.77Z" style="fill: rgb(69, 90, 100); transform-origin: 286.125px 422.305px;" id="elugoboclia8" class="animable"></path><path d="M379.09,381.77s-21.9,12.81-41,.63A45.7,45.7,0,0,1,379.09,381.77Z" style="fill: rgb(69, 90, 100); transform-origin: 358.59px 382.439px;" id="elokwa4za24r" class="animable"></path><path d="M334.94,403.48s-12.62,22-35.26,21A45.7,45.7,0,0,1,334.94,403.48Z" style="fill: rgb(69, 90, 100); transform-origin: 317.31px 413.997px;" id="elbhtp4piexcp" class="animable"></path><path d="M382.22,335.25s-.25,25.37-20.52,35.52A45.71,45.71,0,0,1,382.22,335.25Z" style="fill: rgb(69, 90, 100); transform-origin: 371.96px 353.01px;" id="elfg1jo9vyyb" class="animable"></path><path d="M421.23,355.75s-20,15.64-40.55,6.14A45.68,45.68,0,0,1,421.23,355.75Z" style="fill: rgb(69, 90, 100); transform-origin: 400.955px 359.225px;" id="elptca21wm4zk" class="animable"></path><path d="M443.49,279.58s-1.75,25.31-22.58,34.24A45.68,45.68,0,0,1,443.49,279.58Z" style="fill: rgb(69, 90, 100); transform-origin: 432.2px 296.7px;" id="eldcspp671qh7" class="animable"></path><path d="M409.83,299.35s11.47,22.63-1.85,41A45.67,45.67,0,0,1,409.83,299.35Z" style="fill: rgb(69, 90, 100); transform-origin: 409.207px 319.85px;" id="elmxnry6l5nir" class="animable"></path><path d="M414.42,279.56s.12.19.32.58l.89,1.74c.38.76.78,1.75,1.29,2.89.25.58.47,1.22.73,1.89s.52,1.4.76,2.18A60,60,0,0,1,421,300.42c.11,1.15.28,2.34.32,3.58,0,.62.07,1.25.1,1.89v1.94c0,1.31-.1,2.66-.16,4.05s-.27,2.8-.57,4.24c-.86,5.8-3.5,11.8-7.3,17.5a72.7,72.7,0,0,1-14.86,16,123.19,123.19,0,0,1-20.3,13.09c-7.4,3.94-15.31,7.51-23.33,11.31a202.6,202.6,0,0,0-22.8,12.24,89.15,89.15,0,0,0-18.5,15.3,73.27,73.27,0,0,0-11.81,18.2,93.94,93.94,0,0,0-5.93,18,122,122,0,0,0-2.36,15.49c-.44,4.6-.53,8.58-.6,11.83s0,5.78.06,7.49c0,.84,0,1.49.05,2s0,.66,0,.66-.3-3.59-.3-10.1c0-3.26.09-7.25.51-11.86a118.61,118.61,0,0,1,2.29-15.54,93.32,93.32,0,0,1,5.9-18.11,73,73,0,0,1,11.84-18.35,89.72,89.72,0,0,1,18.58-15.41,202.21,202.21,0,0,1,22.86-12.28c8-3.81,15.92-7.37,23.31-11.29a122.58,122.58,0,0,0,20.24-13A72.28,72.28,0,0,0,413,333.38c3.79-5.66,6.42-11.58,7.3-17.33.3-1.42.4-2.83.58-4.2s.21-2.72.18-4c0-.66,0-1.3,0-1.94S421,304.63,421,304c0-1.23-.19-2.42-.3-3.56a61.6,61.6,0,0,0-2.48-11.56c-.23-.78-.49-1.5-.74-2.17s-.47-1.32-.7-1.9c-.49-1.15-.88-2.14-1.25-2.91l-.84-1.76Z" style="fill: rgb(38, 50, 56); transform-origin: 357.065px 377.395px;" id="el9t3shkiztas" class="animable"></path><path d="M309.94,373.5s8.42,5.13,8.07,7.37-2.08,3.78-2.29,5.21c-.25,1.7-.88,1.65-2.63,1.42-1.49-.2-5,1.39-6.5-1.06s-.3-11.32-.3-11.32Z" style="fill: rgb(117, 255, 191); transform-origin: 311.928px 380.662px;" id="elpcourq82cm" class="animable"></path><path d="M307.44,367.92s-.24-9.85,1.83-10.77,4.29-.3,5.61-.9c1.57-.71,1.87-.15,2.62,1.44.65,1.37,3.9,3.48,2.63,6s-9.35,6.39-9.35,6.39Z" style="fill: rgb(117, 255, 191); transform-origin: 313.927px 363.013px;" id="elh0w76x1gbvi" class="animable"></path><path d="M306.4,375.17s-.62,9.84-2.76,10.57-4.31-.07-5.68.41c-1.62.57-1.86,0-2.48-1.67-.52-1.42-3.57-3.81-2.09-6.25s9.88-5.54,9.88-5.54Z" style="fill: rgb(117, 255, 191); transform-origin: 299.694px 379.527px;" id="el3rmv8aen39l" class="animable"></path><path d="M303.33,373s-8.82,4.4-10.53,2.91-2.09-3.76-3.19-4.7c-1.31-1.12-.93-1.63.2-3,1-1.16,1.5-5,4.36-4.94s9.74,5.78,9.74,5.78Z" style="fill: rgb(117, 255, 191); transform-origin: 296.346px 369.744px;" id="elnd1z5cfzwwg" class="animable"></path><path d="M310.5,369.59s8.82-4.39,10.53-2.91,2.09,3.77,3.19,4.71c1.31,1.12.93,1.63-.2,3-1,1.16-1.5,5-4.36,4.94s-9.74-5.77-9.74-5.77Z" style="fill: rgb(117, 255, 191); transform-origin: 317.484px 372.853px;" id="elj4dk9kpu82" class="animable"></path><path d="M303.88,369.29s-7.94-5.83-7.4-8,2.38-3.59,2.71-5c.4-1.67,1-1.57,2.75-1.19,1.47.33,5.13-1,6.39,1.61s-.67,11.31-.67,11.31Z" style="fill: rgb(117, 255, 191); transform-origin: 302.605px 362.079px;" id="elnochencu6zo" class="animable"></path><path d="M307.79,367.32a4.52,4.52,0,1,0,3.94,5A4.51,4.51,0,0,0,307.79,367.32Z" style="fill: rgb(117, 255, 191); transform-origin: 307.24px 371.806px;" id="elx0f9woh5klr" class="animable"></path><path d="M305.64,372.14a36,36,0,0,0-4.48,1.73,38.59,38.59,0,0,0-4.46,1.79c0,.16,2.18-.24,4.68-1.23A13.54,13.54,0,0,0,305.64,372.14Z" style="fill: rgb(38, 50, 56); transform-origin: 301.17px 373.917px;" id="elfcvezj1tmtp" class="animable"></path><path d="M299.7,365.58a25.77,25.77,0,0,0,6.2,4.8,13.16,13.16,0,0,0-2.91-2.64C301.27,366.42,299.8,365.44,299.7,365.58Z" style="fill: rgb(38, 50, 56); transform-origin: 302.8px 367.973px;" id="eljpzw8ctyb5f" class="animable"></path><path d="M308.18,358.23c-.17,0-.41,2.54-.71,5.68s-.52,5.69-.35,5.71a39,39,0,0,0,1.06-11.39Z" style="fill: rgb(38, 50, 56); transform-origin: 307.649px 363.925px;" id="elj9upwmngkk" class="animable"></path><path d="M316,367a17.52,17.52,0,0,0-3.46,1.67c-1.86,1-3.4,1.74-3.33,1.9a9.87,9.87,0,0,0,3.61-1.37A10,10,0,0,0,316,367Z" style="fill: rgb(38, 50, 56); transform-origin: 312.604px 368.785px;" id="elulcs95v2c2d" class="animable"></path><path d="M308.84,372.71a18.22,18.22,0,0,0,3.53,3,18,18,0,0,0,3.9,2.5,17.76,17.76,0,0,0-3.54-3A18.38,18.38,0,0,0,308.84,372.71Z" style="fill: rgb(38, 50, 56); transform-origin: 312.555px 375.46px;" id="elia2lhid6upg" class="animable"></path><path d="M307,373.08c-.17,0-.59,1.75-.94,4a14.13,14.13,0,0,0-.35,4.07c.17,0,.59-1.76.94-4A14.53,14.53,0,0,0,307,373.08Z" style="fill: rgb(38, 50, 56); transform-origin: 306.354px 377.115px;" id="eln4apsfyprw" class="animable"></path><path d="M307.86,369.44a2.24,2.24,0,1,0,1.95,2.49A2.23,2.23,0,0,0,307.86,369.44Z" style="fill: rgb(255, 255, 255); transform-origin: 307.587px 371.663px;" id="elp8gxgd985ka" class="animable"></path><path d="M431,339.08s5.68,3.47,5.45,5-1.4,2.55-1.54,3.51c-.17,1.15-.6,1.12-1.78,1-1-.13-3.4.94-4.39-.72s-.2-7.64-.2-7.64Z" style="fill: rgb(117, 255, 191); transform-origin: 432.349px 343.945px;" id="el0e9g2bxdrpc" class="animable"></path><path d="M429.34,335.32s-.17-6.65,1.23-7.27,2.9-.21,3.79-.61c1.06-.48,1.26-.1,1.77,1,.43.92,2.63,2.34,1.77,4.07s-6.31,4.31-6.31,4.31Z" style="fill: rgb(117, 255, 191); transform-origin: 433.716px 332.028px;" id="el91qlqbbsfv7" class="animable"></path><path d="M428.64,340.21s-.42,6.64-1.87,7.13-2.91,0-3.83.28c-1.09.38-1.26,0-1.67-1.13-.35-.95-2.42-2.57-1.41-4.22s6.66-3.73,6.66-3.73Z" style="fill: rgb(117, 255, 191); transform-origin: 424.112px 343.151px;" id="el5f3zvl7k1ut" class="animable"></path><path d="M426.57,338.73s-6,3-7.11,2-1.42-2.54-2.16-3.18-.62-1.1.14-2,1-3.38,2.94-3.34,6.57,3.9,6.57,3.9Z" style="fill: rgb(117, 255, 191); transform-origin: 421.877px 336.572px;" id="elayrzovuzum6" class="animable"></path><path d="M431.4,336.44s6-3,7.11-2,1.41,2.54,2.15,3.18.63,1.1-.13,2-1,3.38-2.94,3.34-6.58-3.9-6.58-3.9Z" style="fill: rgb(117, 255, 191); transform-origin: 436.086px 338.598px;" id="el9dw8jl4unxc" class="animable"></path><path d="M426.94,336.24s-5.37-3.93-5-5.42,1.61-2.42,1.83-3.37c.27-1.13.69-1.06,1.85-.8,1,.21,3.47-.65,4.31,1.08s-.45,7.63-.45,7.63Z" style="fill: rgb(117, 255, 191); transform-origin: 426.068px 331.365px;" id="el8dponx4q68e" class="animable"></path><path d="M429.57,334.91a3.05,3.05,0,1,0,2.66,3.4A3,3,0,0,0,429.57,334.91Z" style="fill: rgb(117, 255, 191); transform-origin: 429.206px 337.938px;" id="elte960fvcjln" class="animable"></path><path d="M428.12,338.17a22,22,0,0,0-3,1.16,24.35,24.35,0,0,0-3,1.21,9,9,0,0,0,3.16-.83A9.37,9.37,0,0,0,428.12,338.17Z" style="fill: rgb(38, 50, 56); transform-origin: 425.12px 339.355px;" id="el2fxixf5mx0g" class="animable"></path><path d="M424.11,333.73a9.26,9.26,0,0,0,2,1.79A9,9,0,0,0,428.3,337a8.53,8.53,0,0,0-2-1.78A9,9,0,0,0,424.11,333.73Z" style="fill: rgb(38, 50, 56); transform-origin: 426.205px 335.365px;" id="elbi9yh1pxln" class="animable"></path><path d="M429.84,328.78a22.27,22.27,0,0,0-.48,3.83,23.14,23.14,0,0,0-.24,3.85,15.48,15.48,0,0,0,.64-3.81A16.24,16.24,0,0,0,429.84,328.78Z" style="fill: rgb(38, 50, 56); transform-origin: 429.517px 332.62px;" id="el7hxhgfrz0bg" class="animable"></path><path d="M435.11,334.7a11.28,11.28,0,0,0-2.33,1.12,10.76,10.76,0,0,0-2.25,1.29,6.87,6.87,0,0,0,2.44-.93A6.5,6.5,0,0,0,435.11,334.7Z" style="fill: rgb(38, 50, 56); transform-origin: 432.82px 335.905px;" id="elh4qapr56kcd" class="animable"></path><path d="M430.28,338.55a12.65,12.65,0,0,0,2.39,2,11.88,11.88,0,0,0,2.62,1.68,24.43,24.43,0,0,0-5-3.69Z" style="fill: rgb(38, 50, 56); transform-origin: 432.785px 340.385px;" id="elhubbbtmd96k" class="animable"></path><path d="M429,338.8a18.71,18.71,0,0,0-.86,5.43,9.67,9.67,0,0,0,.63-2.68A9.44,9.44,0,0,0,429,338.8Z" style="fill: rgb(38, 50, 56); transform-origin: 428.579px 341.515px;" id="ella6w9yqdhd" class="animable"></path><path d="M429.62,336.34a1.51,1.51,0,1,0,1.32,1.68A1.51,1.51,0,0,0,429.62,336.34Z" style="fill: rgb(255, 255, 255); transform-origin: 429.441px 337.839px;" id="elqwvl3q2qo1q" class="animable"></path><path d="M417.22,283.75s6.17-.92,6.91.31.53,2.67,1,3.46.24,1.16-.7,1.76-1.88,2.72-3.6,2.12S416.1,286,416.1,286Z" style="fill: rgb(117, 255, 191); transform-origin: 420.733px 287.463px;" id="elgkwxeexcvtn" class="animable"></path><path d="M413.74,282.06s-4.13-4.69-3.5-6,2-1.89,2.37-2.72c.47-1,.84-.83,1.86-.36.86.4,3.3.1,3.73,1.86s-1.95,6.91-1.95,6.91Z" style="fill: rgb(117, 255, 191); transform-origin: 414.213px 277.333px;" id="el6czjaq6cd0o" class="animable"></path><path d="M416.17,286s3.7,5,3,6.26-2.13,1.72-2.6,2.51-.91.75-1.88.19-3.28-.39-3.55-2.18,2.55-6.71,2.55-6.71Z" style="fill: rgb(117, 255, 191); transform-origin: 415.19px 290.686px;" id="eliikb3uwb0v" class="animable"></path><path d="M413.79,286.19s-2.5,5.72-3.93,5.69-2.55-1-3.47-1c-1.09,0-1.11-.41-1.11-1.53,0-1-1.31-3,.11-4.17s7.08-1.16,7.08-1.16Z" style="fill: rgb(117, 255, 191); transform-origin: 409.26px 287.95px;" id="elz7r5z96h2sa" class="animable"></path><path d="M415.9,281.63s2.5-5.72,3.93-5.7,2.55,1,3.47,1c1.09,0,1.11.42,1.11,1.53s1.31,3.05-.11,4.18-7.08,1.15-7.08,1.15Z" style="fill: rgb(117, 255, 191); transform-origin: 420.43px 279.86px;" id="el8v15e5rhtqp" class="animable"></path><path d="M412.56,284.17s-6.23.39-6.86-.9-.3-2.71-.71-3.53c-.49-1-.14-1.17.85-1.69s2.1-2.55,3.76-1.81,4.27,5.76,4.27,5.76Z" style="fill: rgb(117, 255, 191); transform-origin: 409.32px 280.152px;" id="el4elgzu2pu2w" class="animable"></path><path d="M413.66,281.63a2.86,2.86,0,1,0,4,.83A2.86,2.86,0,0,0,413.66,281.63Z" style="fill: rgb(117, 255, 191); transform-origin: 415.253px 284.005px;" id="el2tx2f1zlbfg" class="animable"></path><path d="M414.57,284.84a22.78,22.78,0,0,0-1.47,2.66,22,22,0,0,0-1.44,2.68,8.55,8.55,0,0,0,1.77-2.5A8.33,8.33,0,0,0,414.57,284.84Z" style="fill: rgb(38, 50, 56); transform-origin: 413.115px 287.51px;" id="elwdlh65n7hb" class="animable"></path><path d="M409,284.06a8.07,8.07,0,0,0,2.49.1,8.57,8.57,0,0,0,2.48-.28,8.11,8.11,0,0,0-2.49-.1A8.5,8.5,0,0,0,409,284.06Z" style="fill: rgb(38, 50, 56); transform-origin: 411.485px 283.97px;" id="el7nqkeo2xgyk" class="animable"></path><path d="M410.15,277.05a23.32,23.32,0,0,0,2,3,20.67,20.67,0,0,0,2.15,2.92,15.2,15.2,0,0,0-1.84-3.13A14.09,14.09,0,0,0,410.15,277.05Z" style="fill: rgb(38, 50, 56); transform-origin: 412.225px 280.01px;" id="el83pt6yzgjdk" class="animable"></path><path d="M417.52,278.13a10.55,10.55,0,0,0-1,2.22,10.38,10.38,0,0,0-.85,2.28,10.14,10.14,0,0,0,1.85-4.5Z" style="fill: rgb(38, 50, 56); transform-origin: 416.595px 280.38px;" id="elm0nn5wovby" class="animable"></path><path d="M416.36,283.82a22.48,22.48,0,0,0,5.83-.36,22.55,22.55,0,0,0-5.83.36Z" style="fill: rgb(38, 50, 56); transform-origin: 419.275px 283.64px;" id="elccl191lcrac" class="animable"></path><path d="M415.6,284.75a18.22,18.22,0,0,0,2.65,4.44,8.94,8.94,0,0,0-1.16-2.32A8.76,8.76,0,0,0,415.6,284.75Z" style="fill: rgb(38, 50, 56); transform-origin: 416.925px 286.97px;" id="el2am3j326c76" class="animable"></path><path d="M414.56,282.62a1.42,1.42,0,1,0,1.95.42A1.41,1.41,0,0,0,414.56,282.62Z" style="fill: rgb(255, 255, 255); transform-origin: 415.322px 283.816px;" id="elhstcqqgqweg" class="animable"></path><path d="M312.79,447.07s6.1,3.72,5.85,5.34-1.5,2.74-1.66,3.78c-.18,1.23-.64,1.19-1.91,1-1.08-.14-3.65,1-4.71-.77s-.22-8.21-.22-8.21Z" style="fill: rgb(117, 255, 191); transform-origin: 314.236px 452.247px;" id="elij9pr3918ug" class="animable"></path><path d="M311,443s-.18-7.14,1.32-7.81,3.12-.22,4.08-.65c1.13-.52,1.35-.11,1.89,1.05.47,1,2.83,2.52,1.91,4.38s-6.78,4.62-6.78,4.62Z" style="fill: rgb(117, 255, 191); transform-origin: 315.702px 439.454px;" id="eldwsn5gz1uxp" class="animable"></path><path d="M310.22,448.28s-.44,7.13-2,7.66-3.12-.05-4.11.3c-1.18.41-1.36,0-1.8-1.21-.38-1-2.6-2.76-1.52-4.53s7.17-4,7.17-4Z" style="fill: rgb(117, 255, 191); transform-origin: 305.358px 451.447px;" id="el0ggjmwo7rp4e" class="animable"></path><path d="M308,446.69s-6.4,3.19-7.64,2.11-1.52-2.73-2.31-3.41c-.95-.81-.67-1.18.14-2.16s1.09-3.63,3.16-3.59,7.07,4.19,7.07,4.19Z" style="fill: rgb(117, 255, 191); transform-origin: 302.935px 444.331px;" id="el84ega3n8rex" class="animable"></path><path d="M313.19,444.23s6.4-3.18,7.64-2.11,1.52,2.73,2.32,3.42.67,1.18-.15,2.16-1.09,3.63-3.16,3.58-7.07-4.18-7.07-4.18Z" style="fill: rgb(117, 255, 191); transform-origin: 318.229px 446.59px;" id="elv3f32fiw4f" class="animable"></path><path d="M308.4,444s-5.76-4.22-5.37-5.82,1.73-2.6,2-3.62c.28-1.22.74-1.14,2-.87,1.07.24,3.72-.69,4.63,1.17s-.49,8.2-.49,8.2Z" style="fill: rgb(117, 255, 191); transform-origin: 307.489px 438.762px;" id="eln4rsxqy0z6p" class="animable"></path><path d="M311.23,442.59a3.27,3.27,0,1,0,2.86,3.64A3.27,3.27,0,0,0,311.23,442.59Z" style="fill: rgb(117, 255, 191); transform-origin: 310.844px 445.837px;" id="elk30s1yztbka" class="animable"></path><path d="M309.67,446.08a25.32,25.32,0,0,0-3.25,1.26,24.48,24.48,0,0,0-3.23,1.3,15.06,15.06,0,0,0,6.48-2.56Z" style="fill: rgb(38, 50, 56); transform-origin: 306.43px 447.36px;" id="ela26d37rv4y" class="animable"></path><path d="M305.37,441.32a9.27,9.27,0,0,0,2.11,1.92,9.78,9.78,0,0,0,2.38,1.57,9,9,0,0,0-2.11-1.92A9.78,9.78,0,0,0,305.37,441.32Z" style="fill: rgb(38, 50, 56); transform-origin: 307.615px 443.065px;" id="el2hwvsqi0hqy" class="animable"></path><path d="M311.51,436a68.67,68.67,0,0,0-.77,8.26,28.22,28.22,0,0,0,.77-8.26Z" style="fill: rgb(38, 50, 56); transform-origin: 311.146px 440.13px;" id="eltw6lsg2wqw" class="animable"></path><path d="M317.18,442.35a41.22,41.22,0,0,0-4.92,2.59,7.23,7.23,0,0,0,2.62-1A7,7,0,0,0,317.18,442.35Z" style="fill: rgb(38, 50, 56); transform-origin: 314.72px 443.645px;" id="el9v5ln68il7l" class="animable"></path><path d="M312,446.5a13.18,13.18,0,0,0,2.57,2.16,12.51,12.51,0,0,0,2.82,1.8,13.35,13.35,0,0,0-2.57-2.15A12.85,12.85,0,0,0,312,446.5Z" style="fill: rgb(38, 50, 56); transform-origin: 314.695px 448.48px;" id="elz62nc5b9tn" class="animable"></path><path d="M310.64,446.76a10.26,10.26,0,0,0-.68,2.89,10,10,0,0,0-.25,3,10.5,10.5,0,0,0,.68-2.88A10.07,10.07,0,0,0,310.64,446.76Z" style="fill: rgb(38, 50, 56); transform-origin: 310.175px 449.705px;" id="elt8gbw3tklec" class="animable"></path><path d="M311.28,444.12a1.62,1.62,0,1,0,1.42,1.81A1.63,1.63,0,0,0,311.28,444.12Z" style="fill: rgb(255, 255, 255); transform-origin: 311.092px 445.729px;" id="elfgw1akhwgw5" class="animable"></path><rect x="140.37" y="103.81" width="144.47" height="371.21" style="fill: rgb(69, 90, 100); transform-origin: 212.605px 289.415px;" id="elffh5bcgtcn8" class="animable"></rect><path d="M133.19,96.18l.45.45L135,98c1.2,1.27,3,3.16,5.44,5.73l0,0v0c0,24.44.1,96,.18,180.36,0,52.7,0,100.41-.07,135,0,17.26-.07,31.23-.09,40.89,0,4.82,0,8.57-.05,11.12,0,1.27,0,2.23,0,2.89s0,1,0,1,0-.33,0-1,0-1.62,0-2.89c0-2.55,0-6.3,0-11.12,0-9.66-.05-23.63-.08-40.89,0-34.55-.05-82.26-.08-135,.08-84.36.16-155.92.18-180.36l0,.06-5.38-5.78-1.32-1.43C133.32,96.35,133.19,96.18,133.19,96.18Z" style="fill: rgb(38, 50, 56); transform-origin: 136.905px 285.585px;" id="elirf7zn4fct" class="animable"></path><path d="M203.58,321.52s0-.35,0-1,0-1.65,0-2.95c0-2.6,0-6.42,0-11.37,0-9.91-.05-24.29-.08-42.27,0-35.92-.07-86.19-.11-143.6l.25.25H151.67l.26-.26c0,82.46-.08,155.7-.1,201.21l-.16-.16,38.23.09,10.16,0h2.62l.9,0h-.87l-2.59,0-10.13,0-38.32.08h-.15v-.16c0-45.51-.06-118.75-.11-201.21v-.26h52.43v.26c-.05,57.48-.09,107.81-.12,143.78,0,18-.05,32.32-.07,42.21,0,4.92,0,8.73,0,11.32,0,1.28,0,2.25,0,2.92S203.58,321.52,203.58,321.52Z" style="fill: rgb(38, 50, 56); transform-origin: 177.625px 220.725px;" id="el54r57x9jg1m" class="animable"></path><path d="M265.79,321.52s0-.35,0-1,0-1.65,0-2.95c0-2.6,0-6.42,0-11.37,0-9.91,0-24.29-.07-42.27,0-35.92-.07-86.19-.12-143.6l.26.25H213.88l.26-.26c0,82.46-.08,155.7-.11,201.21l-.15-.16,38.22.09,10.17,0h2.62l.9,0h-.87l-2.6,0-10.12,0-38.32.08h-.16v-.16c0-45.51-.06-118.75-.1-201.21v-.26H266v.26c-.05,57.48-.09,107.81-.11,143.78,0,18-.06,32.32-.08,42.21,0,4.92,0,8.73,0,11.32,0,1.28,0,2.25,0,2.92S265.79,321.52,265.79,321.52Z" style="fill: rgb(38, 50, 56); transform-origin: 239.81px 220.725px;" id="elu70gjr5d9y" class="animable"></path><path d="M203.58,467s0-.21,0-.61,0-1,0-1.77c0-1.57,0-3.87,0-6.85,0-6,0-14.67-.07-25.59,0-21.82-.07-52.56-.12-88.24l.25.25H151.67l.26-.26c0,48-.05,91.49-.07,123.06l-.19-.18,37.93.1L200,467l2.7,0h.93s-.3,0-.89,0l-2.67,0-10.31.05-38,.1h-.18V467c0-31.57-.05-75-.08-123.06v-.26h52.42V344c-.05,35.75-.09,66.54-.12,88.41,0,10.9-.05,19.57-.07,25.53,0,3,0,5.24,0,6.8,0,.76,0,1.34,0,1.74S203.58,467,203.58,467Z" style="fill: rgb(38, 50, 56); transform-origin: 177.71px 405.415px;" id="elvhw23fwfat" class="animable"></path><path d="M265.79,467s0-.21,0-.61,0-1,0-1.77c0-1.57,0-3.87,0-6.85,0-6,0-14.67-.07-25.59,0-21.82-.07-52.56-.11-88.24l.25.25H213.88l.26-.26c0,48-.06,91.49-.08,123.06l-.18-.18,37.92.1,10.35.05,2.7,0h.94s-.3,0-.9,0l-2.67,0-10.3.05-38,.1h-.19V467c0-31.57,0-75-.07-123.06v-.26H266V344c0,35.75-.08,66.54-.11,88.41,0,10.9-.06,19.57-.07,25.53,0,3,0,5.24,0,6.8,0,.76,0,1.34,0,1.74S265.79,467,265.79,467Z" style="fill: rgb(38, 50, 56); transform-origin: 239.83px 405.395px;" id="elpb70v5uezyh" class="animable"></path><g id="el1jekgta25v"><rect x="276.29" y="103.81" width="8.56" height="371.21" style="opacity: 0.3; transform-origin: 280.57px 289.415px;" class="animable"></rect></g><path d="M284.84,103.81c0,.15-32.34.26-72.23.26s-72.24-.11-72.24-.26,32.34-.26,72.24-.26S284.84,103.67,284.84,103.81Z" style="fill: rgb(38, 50, 56); transform-origin: 212.605px 103.81px;" id="elkfue8hx3atp" class="animable"></path></g><g id="freepik--speech-bubble--inject-55" class="animable" style="transform-origin: 414.18px 128.115px;"><polygon points="426.28 148.94 426.5 135.43 438.09 133.58 430.94 124.19 438.25 114.28 425.8 114.38 424.33 101.95 414.59 111.78 404.98 102.58 403.65 116.59 390.3 116.38 400.57 128.07 392.12 137.72 405.49 140.16 403.85 154.19 412.93 142.67 426.28 148.94" style="fill: rgb(255, 255, 255); transform-origin: 414.275px 128.07px;" id="el6lpdegdx23c" class="animable"></polygon><path d="M426.28,148.94l-.21-.09-.65-.29-2.59-1.18-9.95-4.59.15,0-9,11.55-.39.49.08-.62,1.6-14,.17.23-13.37-2.43-.4-.07.27-.31,8.44-9.65v.32L390.1,116.55l-.38-.43h.58l13.36.2-.26.23c.25-2.63.51-5.45.78-8.29q.27-2.88.54-5.71l0-.53.39.37,9.6,9.2h-.35l9.75-9.82.36-.37.06.51q.75,6.43,1.46,12.44l-.24-.21,12.45-.09h.44l-.26.36-7.33,9.9v-.23l7.12,9.4.17.22-.28,0-11.6,1.81.11-.12c-.1,4.39-.18,7.78-.24,10.09,0,1.12-.05,2-.06,2.57s0,.85,0,.85V148c0-.61,0-1.48,0-2.61,0-2.3,0-5.65.08-10v-.11l.11,0,11.58-1.88-.11.26c-2.16-2.83-4.54-5.93-7.16-9.37l-.09-.11.08-.12,7.29-9.93.18.35-12.45.12h-.21l0-.21q-.72-6-1.48-12.43l.42.14L414.77,112l-.18.18-.18-.17-9.61-9.2.44-.16q-.27,2.83-.54,5.71l-.79,8.29,0,.24h-.24l-13.36-.22.2-.42c3.54,4,7,8,10.26,11.7l.15.16-.14.16-8.47,9.64-.13-.38L405.53,140l.19,0,0,.2c-.61,5.08-1.17,9.81-1.67,14l-.32-.13,9.12-11.49.06-.08.1,0,9.8,4.7,2.59,1.24.67.33Z" style="fill: rgb(38, 50, 56); transform-origin: 414.18px 128.115px;" id="el434ved5v5w6" class="animable"></path><path d="M409.8,124.73h2.49a2.12,2.12,0,0,1,2.18-2.13,2,2,0,0,1,1.95,1.29,2.23,2.23,0,0,1-.18,2,2.69,2.69,0,0,1-3,1v5.63h2.47v-3.3a4.81,4.81,0,0,0,3.46-4.7,4.49,4.49,0,0,0-4.67-4.5C413.4,120.07,409.75,120.33,409.8,124.73Z" style="fill: rgb(117, 255, 191); transform-origin: 414.485px 126.268px;" id="elfq4uluywd1l" class="animable"></path><rect x="413.2" y="133.72" width="2.5" height="2.34" style="fill: rgb(117, 255, 191); transform-origin: 414.45px 134.89px;" id="el517hqnk4l1" class="animable"></rect></g><g id="freepik--Clouds--inject-55" class="animable" style="transform-origin: 244.19px 136.026px;"><path d="M375.47,134.5a27,27,0,0,0-4-7,11.91,11.91,0,0,0-7.6-4.16c-3.08-.32-6.5,1.08-7.51,3.56-.44-5.58-1.38-11.31-4.7-16.16s-9.51-8.65-16.14-8.31c-6.25.32-11.6,4.23-14.58,8.88s-4,10-5,15.17c-2.37-2.45-7.37-1.68-9.85.7s-3.1,5.7-3.62,8.82h73.48Z" style="fill: rgb(255, 255, 255); transform-origin: 339.21px 119.204px;" id="elb757ho8wmyl" class="animable"></path><path d="M375.47,134.5a3,3,0,0,1,.14.36l.37,1.08,0,.06h-.06c-6.79.1-36,.18-73.48.21h-.3l0-.3a27.68,27.68,0,0,1,1.14-4.89,10.27,10.27,0,0,1,2.83-4.31,9,9,0,0,1,4.86-2,6.23,6.23,0,0,1,5.08,1.54l-.45.14v-.06a63.3,63.3,0,0,1,2.45-9.94,23.06,23.06,0,0,1,5.13-8.49,19.47,19.47,0,0,1,8.12-5,16.82,16.82,0,0,1,9.11-.22A19.91,19.91,0,0,1,353.21,113a27.88,27.88,0,0,1,2.4,7.11,53.39,53.39,0,0,1,.89,6.77l-.34,0a5.25,5.25,0,0,1,1.95-2.28,8.1,8.1,0,0,1,2.6-1.14,9.29,9.29,0,0,1,5.12.2,12.86,12.86,0,0,1,6.47,4.82,25.16,25.16,0,0,1,2.48,4.48l.53,1.22.16.42s-.08-.13-.21-.4-.32-.69-.57-1.2a26,26,0,0,0-2.55-4.4,12.65,12.65,0,0,0-6.39-4.68,9.22,9.22,0,0,0-5-.15,8,8,0,0,0-2.49,1.1,4.94,4.94,0,0,0-1.81,2.15l-.28.66-.06-.72c-.38-4.25-1-9.11-3.32-13.71a19.49,19.49,0,0,0-12.46-10,16.33,16.33,0,0,0-8.84.24,18.87,18.87,0,0,0-7.9,4.9,22.58,22.58,0,0,0-5,8.32,62.83,62.83,0,0,0-2.41,9.86v0l-.1.49-.35-.36a5.7,5.7,0,0,0-4.65-1.38,8.41,8.41,0,0,0-4.58,1.87,9.62,9.62,0,0,0-2.67,4.1,26.37,26.37,0,0,0-1.13,4.8l-.25-.3c37.47,0,66.69.1,73.48.21l-.05.06-.33-1.1A1.74,1.74,0,0,1,375.47,134.5Z" style="fill: rgb(38, 50, 56); transform-origin: 339.06px 119.183px;" id="ell4w07iagc6m" class="animable"></path><path d="M446.9,201.34a21.31,21.31,0,0,0-3.12-5.45,9.2,9.2,0,0,0-5.88-3.22c-2.38-.25-5,.84-5.8,2.75-.34-4.31-1.07-8.74-3.64-12.49a13.91,13.91,0,0,0-23.74.44c-2.3,3.59-3.09,7.7-3.84,11.73-1.84-1.89-5.7-1.3-7.62.54s-2.39,4.4-2.8,6.82h56.8Z" style="fill: rgb(255, 255, 255); transform-origin: 418.86px 189.474px;" id="el7zl5r1ewpn5" class="animable"></path><path d="M446.9,201.34l.11.27.29.84,0,.06h-.06c-5.25.1-27.83.18-56.8.2h-.3l0-.29a21.66,21.66,0,0,1,.89-3.79,7.94,7.94,0,0,1,2.2-3.36,7,7,0,0,1,3.79-1.56,4.87,4.87,0,0,1,4,1.21l-.44.13v0a48.25,48.25,0,0,1,1.89-7.69,17.87,17.87,0,0,1,4-6.59,15,15,0,0,1,6.3-3.89,13.09,13.09,0,0,1,7.07-.18,15.44,15.44,0,0,1,9.86,8,28.27,28.27,0,0,1,2.54,10.75l-.34,0a4.2,4.2,0,0,1,1.53-1.79,6.44,6.44,0,0,1,2-.88,7.26,7.26,0,0,1,4,.16,9.81,9.81,0,0,1,5,3.75,19.31,19.31,0,0,1,1.92,3.47l.4.94a1.25,1.25,0,0,1,.12.33,1.46,1.46,0,0,1-.17-.31c-.11-.23-.26-.53-.44-.92a21.46,21.46,0,0,0-2-3.4,9.85,9.85,0,0,0-4.94-3.6,7,7,0,0,0-3.81-.11,4.74,4.74,0,0,0-3.3,2.49l-.28.66-.06-.71a28,28,0,0,0-2.57-10.59,15,15,0,0,0-9.6-7.72,12.5,12.5,0,0,0-6.8.18,14.63,14.63,0,0,0-6.09,3.78A17.52,17.52,0,0,0,403,187.5a48.9,48.9,0,0,0-1.86,7.61v0l-.09.49-.35-.36a4.37,4.37,0,0,0-3.55-1.05,6.46,6.46,0,0,0-3.5,1.43,7.52,7.52,0,0,0-2.06,3.14,21.39,21.39,0,0,0-.87,3.7l-.25-.29c29,0,51.55.1,56.8.2l-.05.06-.24-.84A1,1,0,0,1,446.9,201.34Z" style="fill: rgb(38, 50, 56); transform-origin: 418.72px 189.505px;" id="eln7xkijvp47f" class="animable"></path><path d="M189.12,81.45a30.91,30.91,0,0,0-4.56-8A13.49,13.49,0,0,0,176,68.75c-3.49-.36-7.36,1.23-8.5,4-.5-6.32-1.56-12.8-5.32-18.29s-10.76-9.79-18.27-9.41c-7.08.37-13.14,4.8-16.51,10.05s-4.52,11.28-5.62,17.18c-2.69-2.77-8.35-1.9-11.15.79s-3.51,6.45-4.11,10h83.18Z" style="fill: rgb(255, 255, 255); transform-origin: 148.11px 64.0483px;" id="elxfdr3spjtdm" class="animable"></path><path d="M189.12,81.45s.06.13.16.4l.42,1.23,0,.06h-.07c-7.68.1-40.76.18-83.18.2h-.3l0-.29a31.22,31.22,0,0,1,1.3-5.53,11.56,11.56,0,0,1,3.19-4.87,10.08,10.08,0,0,1,5.48-2.25,7,7,0,0,1,5.72,1.73l-.44.14v-.06A72.2,72.2,0,0,1,124.24,61a26.18,26.18,0,0,1,5.81-9.61,22,22,0,0,1,9.17-5.68,19.11,19.11,0,0,1,10.3-.25A22.5,22.5,0,0,1,163.9,57.07a31.1,31.1,0,0,1,2.72,8,60.81,60.81,0,0,1,1,7.67l-.34,0a5.86,5.86,0,0,1,2.2-2.58,9.11,9.11,0,0,1,2.94-1.28,10.61,10.61,0,0,1,5.78.21,14.52,14.52,0,0,1,7.32,5.46,28.6,28.6,0,0,1,2.81,5.06l.6,1.38c.13.31.18.48.18.48l-.23-.46c-.15-.32-.36-.77-.64-1.35a29.81,29.81,0,0,0-2.88-5,14.41,14.41,0,0,0-7.25-5.3,10.24,10.24,0,0,0-5.62-.17,8.65,8.65,0,0,0-2.82,1.25,5.5,5.5,0,0,0-2.06,2.43l-.28.67-.07-.72a61.6,61.6,0,0,0-1-7.62,30.88,30.88,0,0,0-2.72-7.92A22.1,22.1,0,0,0,149.4,45.88a18.52,18.52,0,0,0-10,.27,21.4,21.4,0,0,0-9,5.56,25.71,25.71,0,0,0-5.68,9.42A72.32,72.32,0,0,0,122,72.3v.06l-.09.49-.35-.36a6.48,6.48,0,0,0-5.3-1.57A9.66,9.66,0,0,0,111,73a11.06,11.06,0,0,0-3,4.65,31.14,31.14,0,0,0-1.28,5.44l-.25-.29c42.42,0,75.5.1,83.18.2l0,.06-.37-1.23C189.15,81.59,189.12,81.45,189.12,81.45Z" style="fill: rgb(38, 50, 56); transform-origin: 147.925px 64.1061px;" id="elf3f4k6u32lu" class="animable"></path><path d="M75.6,120.13a12.65,12.65,0,0,0-1.89-3.3,5.6,5.6,0,0,0-3.56-2,3.45,3.45,0,0,0-3.52,1.67,15.22,15.22,0,0,0-2.2-7.57,8.43,8.43,0,0,0-14.39.27,19.41,19.41,0,0,0-2.33,7.1c-1.11-1.14-3.45-.78-4.61.33a7,7,0,0,0-1.7,4.13H75.82Z" style="fill: rgb(255, 255, 255); transform-origin: 58.61px 112.892px;" id="ellhqymu6uvy" class="animable"></path><path d="M75.6,120.13a5.67,5.67,0,0,1,.26.67l0,.06h-.06c-3.18.1-16.87.18-34.42.21h-.3l0-.3a7,7,0,0,1,1.9-4.39,4.38,4.38,0,0,1,2.36-1,3.05,3.05,0,0,1,2.49.76l-.44.14v0a30.75,30.75,0,0,1,1.15-4.68,11,11,0,0,1,2.44-4,9.22,9.22,0,0,1,3.86-2.39,8.08,8.08,0,0,1,4.33-.1,9.4,9.4,0,0,1,6,4.9,17.19,17.19,0,0,1,1.54,6.54l-.34,0a3.09,3.09,0,0,1,2.19-1.65,4.44,4.44,0,0,1,2.44.11,5.94,5.94,0,0,1,3.05,2.3,11.07,11.07,0,0,1,1.15,2.11l.23.58c0,.13.07.2.07.2a4.75,4.75,0,0,1-.39-.73A13.48,13.48,0,0,0,74,117.35a6,6,0,0,0-3-2.15,4.28,4.28,0,0,0-2.28-.06,2.86,2.86,0,0,0-1.95,1.47l-.27.67-.07-.72a16.85,16.85,0,0,0-1.56-6.38,9,9,0,0,0-5.76-4.63,7.52,7.52,0,0,0-4.07.12,8.75,8.75,0,0,0-3.65,2.26,10.65,10.65,0,0,0-2.31,3.85,29.17,29.17,0,0,0-1.13,4.6v0l-.09.5-.35-.37a2.53,2.53,0,0,0-2.07-.6,3.81,3.81,0,0,0-2.07.84,6.64,6.64,0,0,0-1.74,4.08l-.25-.29c17.55,0,31.24.1,34.42.21l0,.06A3.33,3.33,0,0,1,75.6,120.13Z" style="fill: rgb(38, 50, 56); transform-origin: 58.47px 112.966px;" id="elt3n6f2p6kc" class="animable"></path><path d="M336.25,226.14a14.74,14.74,0,0,0-2.18-3.8,6.43,6.43,0,0,0-4.1-2.25c-1.67-.17-3.51.58-4.06,1.92-.24-3-.74-6.1-2.53-8.72a9.72,9.72,0,0,0-16.59.3c-1.6,2.51-2.15,5.38-2.68,8.2-1.28-1.32-4-.91-5.32.37s-1.67,3.08-2,4.77H336.5Z" style="fill: rgb(255, 255, 255); transform-origin: 316.645px 217.857px;" id="elbnm25w2x93p" class="animable"></path><path d="M336.25,226.14a.79.79,0,0,1,.08.19l.21.58,0,.06h-.07c-3.67.11-19.44.19-39.66.21h-.3l0-.3a14.59,14.59,0,0,1,.62-2.66,5.62,5.62,0,0,1,1.56-2.38,4.88,4.88,0,0,1,2.69-1.1,3.48,3.48,0,0,1,2.84.87l-.45.13v0a33.54,33.54,0,0,1,1.32-5.38,12.65,12.65,0,0,1,2.8-4.63,10.57,10.57,0,0,1,4.43-2.74,9.28,9.28,0,0,1,5-.12,10.85,10.85,0,0,1,6.93,5.63,19.82,19.82,0,0,1,1.77,7.53l-.34-.06a3.56,3.56,0,0,1,2.51-1.88,5.16,5.16,0,0,1,2.8.11,6.93,6.93,0,0,1,3.51,2.64,13.59,13.59,0,0,1,1.33,2.44l.27.66a.88.88,0,0,1,.08.23s-.05-.07-.12-.21l-.32-.64a14.94,14.94,0,0,0-1.39-2.36,6.82,6.82,0,0,0-3.44-2.49,4.8,4.8,0,0,0-2.64-.07,3.22,3.22,0,0,0-2.26,1.71l-.28.66-.06-.71a19.5,19.5,0,0,0-1.8-7.37,10.45,10.45,0,0,0-6.66-5.36,8.82,8.82,0,0,0-4.72.13,10.13,10.13,0,0,0-4.21,2.63,12.07,12.07,0,0,0-2.68,4.44,33.49,33.49,0,0,0-1.3,5.31v0l-.1.49-.35-.36a2.94,2.94,0,0,0-2.41-.71,4.45,4.45,0,0,0-2.41,1c-1.34,1.16-1.73,3-2,4.73l-.25-.3c20.22,0,36,.11,39.66.21l0,.06c-.07-.24-.13-.43-.17-.59S336.24,226.14,336.25,226.14Z" style="fill: rgb(38, 50, 56); transform-origin: 316.525px 217.882px;" id="el67bqkv5knei" class="animable"></path></g><g id="freepik--Character--inject-55" class="animable" style="transform-origin: 335.243px 311.12px;"><path d="M297.13,241.41s-7.78-8.46-10.19-10.8a15.22,15.22,0,0,1-2.12-2.62c-1.1-1.94-2.41-.67-2.28,1a9,9,0,0,0,1.12,2.52,8,8,0,0,1,1.3,3s.21,1.27-1.36.69c0,0-2.81-1.24-3.94-1.6,0,0-5-2.81-5.74-2.42s-.73.81-.73.81a4.37,4.37,0,0,0-2.13-.5c-.74.19-.51,1.12-.51,1.12s-1.77-1.18-2.65-.24.54,2.21.54,2.21c.62.44,1.24.9,1.85,1.36a1.22,1.22,0,0,0-.25,1.71s4.35,3.53,6.11,4.71c3.35,2.26,11.16,4.89,11.16,4.89h0c2.19,1.11,3.82,1.91,3.82,1.91Z" style="fill: rgb(174, 116, 97); transform-origin: 282.371px 238.086px;" id="elz5sfjlz2k0d" class="animable"></path><path d="M372.27,160.33a5.63,5.63,0,0,0-2-5.87,7.51,7.51,0,0,0-6.82-1.07,10.91,10.91,0,0,0-8.67-3.46,10.55,10.55,0,0,0-8.1,4.4,15,15,0,0,0-11.86,3.23A11.39,11.39,0,0,0,330.84,168a9.18,9.18,0,0,0-6.9,6.6,8.23,8.23,0,0,0,3.67,8.39c-2.39,2.11-4.45,4.67-5,7.62a7.17,7.17,0,0,0,3.63,7.77,6.89,6.89,0,0,0-1.81,7.43c.82,2.56,2.71,4.74,4.68,6.75a19.63,19.63,0,0,0,6.38,4.74,16,16,0,0,0,9.49.49,29.64,29.64,0,0,0,8.64-3.81c13.06-8,28.63-10.2,23.15-35.44Z" style="fill: rgb(38, 50, 56); transform-origin: 350.18px 184.098px;" id="ellrjgl08x7d" class="animable"></path><path d="M323.7,442.53l1.8,18.66s-20.34,7.6-20.56,11.36l38.45.1,0-2.81-1.62-9.6-2.37-18.64Z" style="fill: rgb(69, 90, 100); transform-origin: 324.165px 457.125px;" id="eltc4gaxnfqxa" class="animable"></path><path d="M337.07,458.3a1.61,1.61,0,0,1,1.12,1.83,1.55,1.55,0,0,1-1.81,1.12,1.69,1.69,0,0,1-1.17-1.95,1.6,1.6,0,0,1,2-.95" style="fill: rgb(224, 224, 224); transform-origin: 336.697px 459.775px;" id="elt64hi1cdpl" class="animable"></path><path d="M343.39,472.65l0-2.81-36.88.71s-1.75.77-1.55,2Z" style="fill: rgb(38, 50, 56); transform-origin: 324.167px 471.245px;" id="elwcw6ycplbv" class="animable"></path><path d="M324.86,461c0,.2,1,.28,1.91.9s1.45,1.42,1.63,1.34-.11-1.19-1.27-1.91S324.82,460.82,324.86,461Z" style="fill: rgb(38, 50, 56); transform-origin: 326.654px 462.036px;" id="elm0bopeea0b" class="animable"></path><path d="M320.74,462.71c-.05.19.78.51,1.44,1.32s.84,1.67,1,1.66.31-1.09-.53-2.09S320.74,462.53,320.74,462.71Z" style="fill: rgb(38, 50, 56); transform-origin: 322.021px 464.161px;" id="elbsogsr37bp" class="animable"></path><path d="M318.4,467.66c.18,0,.44-.92,0-2s-1.4-1.46-1.48-1.3.48.72.87,1.59S318.21,467.64,318.4,467.66Z" style="fill: rgb(38, 50, 56); transform-origin: 317.777px 465.992px;" id="elyrxlmp0qq8" class="animable"></path><path d="M323.49,456.51c.08.17,1-.1,2.05,0s1.94.41,2,.24-.72-.85-2-.91S323.4,456.36,323.49,456.51Z" style="fill: rgb(38, 50, 56); transform-origin: 325.513px 456.318px;" id="el0i6midz4xo9j" class="animable"></path><path d="M371,443.06l1.65,18.34s-20,7.34-20.26,11l37.77.34V470l-1.52-9.44-2.23-18.33Z" style="fill: rgb(69, 90, 100); transform-origin: 371.275px 457.485px;" id="elr13v25ne7k" class="animable"></path><path d="M384,458.63a1.56,1.56,0,0,1,1.08,1.8,1.51,1.51,0,0,1-1.78,1.09,1.66,1.66,0,0,1-1.14-1.91,1.57,1.57,0,0,1,2-.93" style="fill: rgb(224, 224, 224); transform-origin: 383.619px 460.071px;" id="elofx9hv15b2" class="animable"></path><path d="M390.11,472.77V470l-36.23.47s-1.72.74-1.53,1.95Z" style="fill: rgb(38, 50, 56); transform-origin: 371.223px 471.385px;" id="el1vch48t1wla" class="animable"></path><path d="M372,461.2c0,.19.95.28,1.88.89s1.42,1.41,1.59,1.33-.1-1.16-1.24-1.88S371.93,461,372,461.2Z" style="fill: rgb(38, 50, 56); transform-origin: 373.757px 462.224px;" id="el05dhzdy5q9en" class="animable"></path><path d="M367.91,462.86c0,.19.78.51,1.41,1.31s.83,1.65,1,1.64.32-1.07-.5-2.05S367.92,462.68,367.91,462.86Z" style="fill: rgb(38, 50, 56); transform-origin: 369.182px 464.298px;" id="elpl8ycz9b9m" class="animable"></path><path d="M365.59,467.71c.18,0,.44-.9,0-1.94s-1.36-1.45-1.44-1.29.46.71.84,1.57S365.41,467.69,365.59,467.71Z" style="fill: rgb(38, 50, 56); transform-origin: 364.987px 466.078px;" id="elgdb1r98kdhe" class="animable"></path><path d="M370.66,456.79c.08.17.95-.09,2,0s1.9.41,2,.25-.7-.84-2-.91S370.57,456.64,370.66,456.79Z" style="fill: rgb(38, 50, 56); transform-origin: 372.661px 456.604px;" id="elil01cojuacp" class="animable"></path><path d="M322.87,280.27s-9.11,26.39-9.42,46-.63,50.85,3.45,85.3,6,48.28,6,48.28h20.74A407,407,0,0,0,345.5,419c-.31-19.31-1.82-25.43,0-46.67s4.79-34,7.88-40.45c0,0,8.56-10.17,9.19-24.13a68.07,68.07,0,0,0-4.31-26Z" style="fill: rgb(38, 50, 56); transform-origin: 337.943px 370.06px;" id="els70q4lhr12r" class="animable"></path><path d="M341.3,317.3c.35,1.06,6.5,44.33,11,63.42s9.49,24.13,10.37,39.66c1,17.86,5.91,39.5,5.91,39.5h22.08s-3.1-33-6.21-58.81-7.59-57.62-6.9-67.16,2.41-21.33,0-34.7-7.64-16.9-7.64-16.9l-18.74-.84Z" style="fill: rgb(38, 50, 56); transform-origin: 365.98px 370.675px;" id="elckn1gbi2uc6" class="animable"></path><path d="M362.09,292.55a3.68,3.68,0,0,1,.34.67,12.53,12.53,0,0,1,.75,2,26.64,26.64,0,0,1,.73,7.91,51.63,51.63,0,0,1-1.81,11.64,38.16,38.16,0,0,1-2.41,6.56,47.07,47.07,0,0,1-4,6.33c-3,4.13-4.49,8.84-5.61,13.1a94.1,94.1,0,0,0-2.1,11.54c-.4,3.33-.65,6-.83,7.89-.09.9-.16,1.61-.22,2.15a5.42,5.42,0,0,1-.1.74,4.27,4.27,0,0,1,0-.75c0-.54.07-1.25.13-2.16.13-1.86.32-4.57.69-7.9a88.64,88.64,0,0,1,2-11.62,55.61,55.61,0,0,1,2.09-6.65,31.64,31.64,0,0,1,1.54-3.37,33.23,33.23,0,0,1,2-3.23,48.07,48.07,0,0,0,4-6.27,37.53,37.53,0,0,0,2.41-6.47,53.73,53.73,0,0,0,1.9-11.54,28.18,28.18,0,0,0-.58-7.85,15.91,15.91,0,0,0-.66-2A7.13,7.13,0,0,1,362.09,292.55Z" style="fill: rgb(69, 90, 100); transform-origin: 355.384px 327.815px;" id="el4pulm1vc3yu" class="animable"></path><path d="M371.88,165.31l-14.66-6.47c-5.81-1.47-10.78,5.25-12,11.12-1.35,6.53-2.74,14.55-2.66,19.58a15.17,15.17,0,0,0,8.71,13.63l-.81,6.05c.31,4.73,5.24,5.29,5.24,5.29,13.53,1.61,15.17-5.95,15.17-5.95l3.56-37.51C374.73,169.25,373.65,165.75,371.88,165.31Z" style="fill: rgb(174, 116, 97); transform-origin: 358.518px 186.685px;" id="el7xwtkq5s52n" class="animable"></path><path d="M353.36,186a9.8,9.8,0,0,0-2.16-.71c-.35-.09-.67-.2-.69-.45a1.75,1.75,0,0,1,.38-1c.45-.79.91-1.63,1.41-2.5a47.28,47.28,0,0,0,3.3-6.61c-.15-.08-1.86,2.75-3.83,6.33l-1.36,2.52a2.06,2.06,0,0,0-.38,1.34.88.88,0,0,0,.5.59,2.18,2.18,0,0,0,.58.17A8.75,8.75,0,0,0,353.36,186Z" style="fill: rgb(38, 50, 56); transform-origin: 352.813px 180.364px;" id="el9bem56qi78s" class="animable"></path><path d="M351.27,203.17a32.83,32.83,0,0,0,12.58-2.84s-2.91,6-13,5.84Z" style="fill: rgb(111, 68, 57); transform-origin: 357.35px 203.252px;" id="elsvyeoc8eik" class="animable"></path><path d="M360.68,171.27c.08.39,1.46.41,3,.83s2.8,1,3.06.74c.12-.14-.06-.52-.53-1a5.5,5.5,0,0,0-4.65-1.19C361,170.84,360.64,171.09,360.68,171.27Z" style="fill: rgb(38, 50, 56); transform-origin: 363.727px 171.722px;" id="elr7eup2igg4" class="animable"></path><path d="M347.52,169.78c.2.34,1.18.15,2.32.3s2.05.5,2.32.21c.12-.14,0-.47-.36-.83a3.27,3.27,0,0,0-1.81-.77,3.21,3.21,0,0,0-1.93.36C347.62,169.31,347.44,169.61,347.52,169.78Z" style="fill: rgb(38, 50, 56); transform-origin: 349.853px 169.533px;" id="el8d26ifn2y2a" class="animable"></path><path d="M340.3,174.3a6.93,6.93,0,0,1,2.06-4.12,24.21,24.21,0,0,0,2-1.59c1.26-1.36,1.3-3.42,1.95-5.15a7.57,7.57,0,0,1,5.14-4.6c1.92-.48,4-.19,5.86-.94,1.36-.56,2.46-1.66,3.85-2.14,2.7-.93,5.58.69,7.88,2.39.3,2-1.1,3.55-2.44,5a7,7,0,0,1-5.37,2.29c-1.56-.06-3.34-.59-4.54.41s-1,3.15-2.08,4.39c-1.54,1.78-4.53.75-6.66,1.74-1.65.76-2.48,2.56-3.42,4.1s-2.46,3.11-4.26,2.85A20.92,20.92,0,0,1,340.3,174.3Z" style="fill: rgb(38, 50, 56); transform-origin: 354.619px 167.223px;" id="elvafqrv33kxf" class="animable"></path><path d="M364.84,161.31A35.27,35.27,0,0,1,377.9,165a6.42,6.42,0,0,1,3.06,2.58,6.32,6.32,0,0,1,.35,3.51c-.4,3.71-2.34,8.12-4.09,11.42l-4.91,2.32c-3.5-1.19-1.26-7.2-.78-10.28a7.33,7.33,0,0,1-3.64-6.87A8.1,8.1,0,0,1,364.84,161.31Z" style="fill: rgb(38, 50, 56); transform-origin: 373.128px 173.07px;" id="el6q2ge93izv9" class="animable"></path><path d="M358.71,180.76a1.31,1.31,0,0,0,1.07,1.49,1.26,1.26,0,0,0,1.51-1,1.31,1.31,0,0,0-1.07-1.49A1.26,1.26,0,0,0,358.71,180.76Z" style="fill: rgb(38, 50, 56); transform-origin: 360px 181.005px;" id="elyjoxy0sqq8" class="animable"></path><path d="M346.66,179.41a1.31,1.31,0,0,0,1.07,1.49,1.26,1.26,0,0,0,1.51-1,1.31,1.31,0,0,0-1.07-1.49A1.26,1.26,0,0,0,346.66,179.41Z" style="fill: rgb(38, 50, 56); transform-origin: 347.95px 179.655px;" id="el6fe3tq09lpb" class="animable"></path><path d="M347.22,174.35c.11.2,1.17-.38,2.44-.11s2,1.2,2.22,1,0-.42-.32-.84a3,3,0,0,0-1.73-1.06,2.91,2.91,0,0,0-2,.31C347.37,174,347.17,174.25,347.22,174.35Z" style="fill: rgb(38, 50, 56); transform-origin: 349.591px 174.275px;" id="elkss9do1klte" class="animable"></path><path d="M359.38,176.58c.16.22,1.34-.53,2.89-.36s2.58,1.1,2.77.92-.05-.46-.5-.9a3.76,3.76,0,0,0-2.2-1,3.58,3.58,0,0,0-2.31.54C359.51,176.14,359.31,176.49,359.38,176.58Z" style="fill: rgb(38, 50, 56); transform-origin: 362.236px 176.191px;" id="el2euyi3jr8sp" class="animable"></path><path d="M359.13,189.53c-.08-.89-.17-1.87-1.07-1.89a6.35,6.35,0,0,0-3.17,1.37c-.36.55.32,1,.46,1.62v.14a2.19,2.19,0,0,0,2.38.83A2,2,0,0,0,359.13,189.53Z" style="fill: rgb(111, 68, 57); transform-origin: 356.961px 189.662px;" id="eldug8kq0dgq" class="animable"></path><path d="M361.23,207.79l-7.5-.6s-19.13,15.23-23.05,34.64-8.4,38.79-8.4,38.79l34.9,4.3a40,40,0,0,0,10.93-.15l3.64-.55-3-12.32s5.53-23.31,7.69-32.1a39.27,39.27,0,0,0,.14-18.94A17.24,17.24,0,0,0,361.23,207.79Z" style="fill: rgb(117, 255, 191); transform-origin: 349.975px 246.207px;" id="el0zwss6xdes6" class="animable"></path><g id="ely8b27rlfua"><g style="opacity: 0.3; transform-origin: 335.725px 253.49px;" class="animable"><path d="M338,245.64l-14.15,27.72c3.67-.13,6.28-1.65,8.77-4.34a39.84,39.84,0,0,0,5.88-9.26c4.21-8.27,8.26-16.89,9.1-26.14A101.77,101.77,0,0,0,338,245.64Z" id="elhxyvc8m2rgf" class="animable" style="transform-origin: 335.725px 253.49px;"></path></g></g><path d="M374.48,215.87s19.26,40.16,17.81,45.64c-1.64,6.18-7.13,8.47-10.89,7.33s-13.22-7.79-13.22-7.79Z" style="fill: rgb(117, 255, 191); transform-origin: 380.274px 242.496px;" id="el9s6dy0tk2zw" class="animable"></path><path d="M296,238.75c.21.3,20.61,12,20.61,12s9.55-18.17,12.61-24.52S336,211,340.84,208.26s12.89-1.07,12.89-1.07l-3.26,23.66-7.91,17.05s-9.4,18.78-14.55,23.15c-4.7,4-12,2.39-15.32.44s-25.11-20.72-25.11-20.72Z" style="fill: rgb(117, 255, 191); transform-origin: 320.655px 240.104px;" id="elkgklswbnuu" class="animable"></path><path d="M350.47,231.12a2.13,2.13,0,0,1-.2.56c-.18.41-.4.94-.68,1.59-.59,1.36-1.48,3.33-2.6,5.75-2.26,4.84-5.5,11.46-9.34,18.64a72.82,72.82,0,0,1-5.91,9.86,20.15,20.15,0,0,1-3.52,3.61,12.05,12.05,0,0,1-3.91,2,13.21,13.21,0,0,1-6.3.33,12.65,12.65,0,0,1-1.67-.45,2.17,2.17,0,0,1-.55-.24s.79.26,2.25.5a13.39,13.39,0,0,0,6.17-.46,11.76,11.76,0,0,0,3.76-2,20.45,20.45,0,0,0,3.43-3.56,76.86,76.86,0,0,0,5.83-9.83c3.84-7.17,7.12-13.76,9.45-18.55,1.14-2.37,2.07-4.3,2.75-5.69l.75-1.55A3.3,3.3,0,0,1,350.47,231.12Z" style="fill: rgb(38, 50, 56); transform-origin: 333.13px 252.407px;" id="el9rvdgclvi1n" class="animable"></path><path d="M377,231.66a6.31,6.31,0,0,1-.1,1.36c-.11.86-.29,2.12-.53,3.66-.48,3.1-1.2,7.36-2.09,12s-1.78,8.93-2.51,12c-.36,1.53-.66,2.76-.91,3.6a7.37,7.37,0,0,1-.41,1.3,8.69,8.69,0,0,1,.23-1.34l.77-3.63c.63-3.06,1.47-7.3,2.36-12s1.64-8.85,2.23-12c.27-1.47.5-2.7.68-3.64A9.51,9.51,0,0,1,377,231.66Z" style="fill: rgb(38, 50, 56); transform-origin: 373.727px 248.62px;" id="el9uyed2vewih" class="animable"></path><path d="M355.7,191.53a3.55,3.55,0,0,0,1.54.16,2,2,0,0,0,1.31-.85,2.09,2.09,0,0,0,.26-1.85,6.66,6.66,0,0,0-.45-1c-.08-.12-.12-.14-.22-.14a1.38,1.38,0,0,0-.42.11l-1.68.59a5,5,0,0,1-1.6.41,5.81,5.81,0,0,1,1.47-.76l1.64-.69a1.61,1.61,0,0,1,.58-.16.77.77,0,0,1,.66.36,6.68,6.68,0,0,1,.51,1.08,2.46,2.46,0,0,1-.36,2.3,2.28,2.28,0,0,1-1.65.94C356.17,192.14,355.64,191.55,355.7,191.53Z" style="fill: rgb(38, 50, 56); transform-origin: 356.939px 189.697px;" id="el17st8dx8dvl" class="animable"></path><path d="M369,155.44a6.85,6.85,0,0,1,7.15-2.44,8,8,0,0,1,5.25,6.07,7.24,7.24,0,0,1,6.5,2.77,9.78,9.78,0,0,1,1.83,7.64,7.33,7.33,0,0,1,7.6,2.62,10.06,10.06,0,0,1,1.63,8.88,9.39,9.39,0,0,1,3.9,8.14,9.09,9.09,0,0,1-4.63,7.63,10.63,10.63,0,0,1,.84,10.06,8.15,8.15,0,0,1-7.71,4.94,6.8,6.8,0,0,1-.37,6.55,11.78,11.78,0,0,1-4.77,4.19c-4.51,2.45-9.7,3.52-14.56,2.21a16.23,16.23,0,0,1-11-10.57,11.74,11.74,0,0,1-.12-7.43c.86-2.34,2.94-4.17,5.15-4a17.28,17.28,0,0,1,1.31-7.86,7.4,7.4,0,0,1,5.77-3.93c-1.93-5.09-.4-8.3,2.59-12.67a18.16,18.16,0,0,1-8.95-10.45c-1.42-4.74-.1-10.7,3.7-13.19" style="fill: rgb(38, 50, 56); transform-origin: 381.435px 189.021px;" id="elsmnvnjfa48" class="animable"></path><path d="M371.26,183.9c.34-2.11,3-2.27,4.72-1,.94.7,1.58,2,1.23,4.21-.93,6-6.75,3.82-6.73,3.64S370.85,186.38,371.26,183.9Z" style="fill: rgb(174, 116, 97); transform-origin: 373.893px 186.689px;" id="elnxdhdlhi84" class="animable"></path><path d="M372.66,188.77s.09.09.26.2a1.1,1.1,0,0,0,.77.14,2.64,2.64,0,0,0,1.56-2.13,3.58,3.58,0,0,0-.06-1.54,1.25,1.25,0,0,0-.66-.93.55.55,0,0,0-.66.19c-.11.16-.09.29-.12.29s-.11-.12,0-.36a.78.78,0,0,1,.3-.34.81.81,0,0,1,.6-.06,1.48,1.48,0,0,1,.94,1.1,3.4,3.4,0,0,1,.1,1.72,2.74,2.74,0,0,1-1.92,2.35,1.11,1.11,0,0,1-.93-.31C372.65,188.92,372.64,188.78,372.66,188.77Z" style="fill: rgb(111, 68, 57); transform-origin: 374.205px 186.804px;" id="elhnlwb43aq9d" class="animable"></path><path d="M332.43,215.55a2.12,2.12,0,0,1-.32-.23c-.21-.16-.51-.39-.89-.71a34.73,34.73,0,0,1-3.14-3,18.91,18.91,0,0,1-3.72-5.61,9.09,9.09,0,0,1-.56-4.14,4.8,4.8,0,0,1,.71-2.19,5.1,5.1,0,0,1,1.79-1.63v.39a9.14,9.14,0,0,1-3-3,7.25,7.25,0,0,1-.83-4.49,12.48,12.48,0,0,1,1.57-4.54,8.82,8.82,0,0,1,3.48-3.61l0,.45A9.68,9.68,0,0,1,326,182a7.92,7.92,0,0,1-2.13-7.93,9.24,9.24,0,0,1,2.11-3.47,9.92,9.92,0,0,1,3.14-2.29A9,9,0,0,0,330,168l.42-.2.08,0s0,0,0,0,0-.11,0-.18a8.65,8.65,0,0,0,.17-1.75,9.56,9.56,0,0,1,.71-3.4,12.49,12.49,0,0,1,7.92-7.61,12.59,12.59,0,0,1,3.79-.64,9.36,9.36,0,0,1,3.24.42,17.8,17.8,0,0,0-3.23-.22,12.87,12.87,0,0,0-8,3.23,12.69,12.69,0,0,0-3.33,5,9.38,9.38,0,0,0-.66,3.26,8.66,8.66,0,0,1-.15,1.82c0,.07,0,.13-.06.26a.4.4,0,0,1-.17.21l-.13.06-.4.2c-.3.14-.6.23-.88.34a9.38,9.38,0,0,0-3,2.18,9,9,0,0,0-2,3.28,7.46,7.46,0,0,0,2,7.42,9,9,0,0,0,1.4,1.12l.37.25-.4.2a8.56,8.56,0,0,0-3.27,3.4,12.23,12.23,0,0,0-1.52,4.35,6.74,6.74,0,0,0,.76,4.2,8.75,8.75,0,0,0,2.85,2.89l.31.2-.32.19a4.61,4.61,0,0,0-1.65,1.47,4.33,4.33,0,0,0-.67,2,9.08,9.08,0,0,0,.49,4,19.13,19.13,0,0,0,3.58,5.56,40,40,0,0,0,3,3.06l.84.77C332.34,215.44,332.44,215.54,332.43,215.55Z" style="fill: rgb(255, 255, 255); transform-origin: 334.366px 184.88px;" id="elu95znyzz9i" class="animable"></path><path d="M348.67,201.37a3.1,3.1,0,0,1-.79-.44,9.83,9.83,0,0,1-1.84-1.67,15,15,0,0,1-3.29-7.42,29.71,29.71,0,0,1,0-8.13c.12-1,.25-1.86.34-2.43a2.78,2.78,0,0,1,.21-.88,24.78,24.78,0,0,1-.18,3.35,34.9,34.9,0,0,0,.16,8,15.93,15.93,0,0,0,3.06,7.26A22.94,22.94,0,0,0,348.67,201.37Z" style="fill: rgb(255, 255, 255); transform-origin: 345.57px 190.885px;" id="eltttjbze8jjt" class="animable"></path><path d="M363,153.31a13.06,13.06,0,0,0-3.61-2.42,10.83,10.83,0,0,0-7.3-.44,10.1,10.1,0,0,0-2.66,1.26,6.75,6.75,0,0,0-2.15,2.41,3.8,3.8,0,0,0-.35,2.81l.08.27-.28,0a5.86,5.86,0,0,0-3,1.31,6.47,6.47,0,0,0-1.65,2,10,10,0,0,0-.71,2.24,1.8,1.8,0,0,1,0-.63,5.43,5.43,0,0,1,.46-1.73,6.52,6.52,0,0,1,1.66-2.22,6.12,6.12,0,0,1,3.25-1.47l-.2.3a4.25,4.25,0,0,1,.35-3.18,7.25,7.25,0,0,1,2.3-2.61,10.41,10.41,0,0,1,2.81-1.32,12.14,12.14,0,0,1,2.86-.42,11.23,11.23,0,0,1,4.74,1,9.44,9.44,0,0,1,2.7,1.84A3.9,3.9,0,0,1,363,153.31Z" style="fill: rgb(255, 255, 255); transform-origin: 352.171px 156.11px;" id="elsezvp7soz4" class="animable"></path><path d="M334.81,215.85a9.39,9.39,0,0,1-.61,1.44l-1.85,3.85c-1.58,3.24-3.79,7.69-6.27,12.6s-4.74,9.34-6.4,12.54c-.81,1.53-1.48,2.8-2,3.77a9.49,9.49,0,0,1-.79,1.35,9.39,9.39,0,0,1,.61-1.44l1.85-3.85c1.58-3.24,3.79-7.69,6.27-12.6s4.74-9.34,6.4-12.54c.81-1.53,1.48-2.79,2-3.77A10,10,0,0,1,334.81,215.85Z" style="fill: rgb(255, 255, 255); transform-origin: 325.85px 233.625px;" id="elmz3ffgk2rg" class="animable"></path><path d="M315.62,250.62a81.26,81.26,0,0,1-8.16-4.18,79.65,79.65,0,0,1-7.9-4.65,79.51,79.51,0,0,1,8.15,4.19A82.78,82.78,0,0,1,315.62,250.62Z" style="fill: rgb(255, 255, 255); transform-origin: 307.59px 246.205px;" id="elgdybfe00gs8" class="animable"></path><path d="M314.41,341.59a3.08,3.08,0,0,1-.05-.52q0-.6-.06-1.5c0-1.31-.08-3.19-.1-5.53s0-5.11.08-8.19.24-6.49.68-10A142.47,142.47,0,0,1,318.61,298c.59-2.26,1.09-4.08,1.45-5.34.17-.58.31-1.05.42-1.44a1.63,1.63,0,0,1,.18-.49,1.87,1.87,0,0,1-.08.52c-.09.39-.2.87-.33,1.46-.32,1.35-.75,3.16-1.28,5.37a166.45,166.45,0,0,0-3.49,17.85c-.44,3.52-.6,6.91-.72,10s-.16,5.85-.19,8.18-.05,4.15-.07,5.53c0,.6,0,1.1,0,1.5A1.65,1.65,0,0,1,314.41,341.59Z" style="fill: rgb(255, 255, 255); transform-origin: 317.426px 316.16px;" id="elojj9kzz885" class="animable"></path></g><defs>     <filter id="active" height="200%">         <feMorphology in="SourceAlpha" result="DILATED" operator="dilate" radius="2"></feMorphology>                <feFlood flood-color="#32DFEC" flood-opacity="1" result="PINK"></feFlood>        <feComposite in="PINK" in2="DILATED" operator="in" result="OUTLINE"></feComposite>        <feMerge>            <feMergeNode in="OUTLINE"></feMergeNode>            <feMergeNode in="SourceGraphic"></feMergeNode>        </feMerge>    </filter>    <filter id="hover" height="200%">        <feMorphology in="SourceAlpha" result="DILATED" operator="dilate" radius="2"></feMorphology>                <feFlood flood-color="#ff0000" flood-opacity="0.5" result="PINK"></feFlood>        <feComposite in="PINK" in2="DILATED" operator="in" result="OUTLINE"></feComposite>        <feMerge>            <feMergeNode in="OUTLINE"></feMergeNode>            <feMergeNode in="SourceGraphic"></feMergeNode>        </feMerge>            <feColorMatrix type="matrix" values="0   0   0   0   0                0   1   0   0   0                0   0   0   0   0                0   0   0   1   0 "></feColorMatrix>    </filter></defs></svg>